<?xml version="1.0" encoding="UTF-8" standalone="no"?>
<!-- Created with Inkscape (http://www.inkscape.org/) -->

<svg
   xmlns:dc="http://purl.org/dc/elements/1.1/"
   xmlns:cc="http://creativecommons.org/ns#"
   xmlns:rdf="http://www.w3.org/1999/02/22-rdf-syntax-ns#"
   xmlns:svg="http://www.w3.org/2000/svg"
   xmlns="http://www.w3.org/2000/svg"
   xmlns:xlink="http://www.w3.org/1999/xlink"
   xmlns:sodipodi="http://sodipodi.sourceforge.net/DTD/sodipodi-0.dtd"
   xmlns:inkscape="http://www.inkscape.org/namespaces/inkscape"
   width="100"
   height="100"
   viewBox="0 0 26.458333 26.458333"
   version="1.1"
   id="svg846"
   inkscape:version="0.92.3 (2405546, 2018-03-11)"
   sodipodi:docname="button_a_raw.svg">
  <defs
     id="defs840">
    <linearGradient
       inkscape:collect="always"
       id="linearGradient1065">
      <stop
         style="stop-color:#000000;stop-opacity:1;"
         offset="0"
         id="stop1061" />
      <stop
         style="stop-color:#1b181a;stop-opacity:0.98039216"
         offset="1"
         id="stop1063" />
    </linearGradient>
    <marker
       inkscape:stockid="DiamondL"
       orient="auto"
       refY="0.0"
       refX="0.0"
       id="DiamondL"
       style="overflow:visible"
       inkscape:isstock="true">
      <path
         id="path1477"
         d="M 0,-7.0710768 L -7.0710894,0 L 0,7.0710589 L 7.0710462,0 L 0,-7.0710768 z "
         style="fill-rule:evenodd;stroke:#000000;stroke-width:1.0pt"
         transform="scale(0.8)" />
    </marker>
    <marker
       inkscape:stockid="Club"
       orient="auto"
       refY="0.0"
       refX="0.0"
       id="Club"
       style="overflow:visible"
       inkscape:isstock="true">
      <path
         id="path1627"
         d="M -1.5971367,-7.0977635 C -3.4863874,-7.0977635 -5.0235187,-5.5606321 -5.0235187,-3.6713813 C -5.0235187,-3.0147015 -4.7851656,-2.4444556 -4.4641095,-1.9232271 C -4.5028609,-1.8911157 -4.5437814,-1.8647646 -4.5806531,-1.8299921 C -5.2030765,-2.6849849 -6.1700514,-3.2751330 -7.3077730,-3.2751330 C -9.1970245,-3.2751331 -10.734155,-1.7380016 -10.734155,0.15124914 C -10.734155,2.0404999 -9.1970245,3.5776313 -7.3077730,3.5776313 C -6.3143268,3.5776313 -5.4391540,3.1355702 -4.8137404,2.4588126 C -4.9384274,2.8137041 -5.0235187,3.1803000 -5.0235187,3.5776313 C -5.0235187,5.4668819 -3.4863874,7.0040135 -1.5971367,7.0040135 C 0.29211394,7.0040135 1.8292454,5.4668819 1.8292454,3.5776313 C 1.8292454,2.7842354 1.5136868,2.0838028 1.0600576,1.5031550 C 2.4152718,1.7663868 3.7718375,2.2973711 4.7661444,3.8340272 C 4.0279463,3.0958289 3.5540908,1.7534117 3.5540908,-0.058529361 L 2.9247554,-0.10514681 L 3.5074733,-0.12845553 C 3.5074733,-1.9403966 3.9580199,-3.2828138 4.6962183,-4.0210121 C 3.7371277,-2.5387813 2.4390549,-1.9946496 1.1299838,-1.7134486 C 1.5341802,-2.2753578 1.8292454,-2.9268556 1.8292454,-3.6713813 C 1.8292454,-5.5606319 0.29211394,-7.0977635 -1.5971367,-7.0977635 z "
         style="fill-rule:evenodd;stroke:#000000;stroke-width:0.74587913pt"
         transform="scale(0.6)" />
    </marker>
    <marker
       inkscape:stockid="DotL"
       orient="auto"
       refY="0.0"
       refX="0.0"
       id="marker1686"
       style="overflow:visible"
       inkscape:isstock="true">
      <path
         id="path1684"
         d="M -2.5,-1.0 C -2.5,1.7600000 -4.7400000,4.0 -7.5,4.0 C -10.260000,4.0 -12.5,1.7600000 -12.5,-1.0 C -12.5,-3.7600000 -10.260000,-6.0 -7.5,-6.0 C -4.7400000,-6.0 -2.5,-3.7600000 -2.5,-1.0 z "
         style="fill-rule:evenodd;stroke:#000000;stroke-width:1.0pt"
         transform="scale(0.8) translate(7.4, 1)" />
    </marker>
    <marker
       inkscape:stockid="DotL"
       orient="auto"
       refY="0.0"
       refX="0.0"
       id="marker1670"
       style="overflow:visible"
       inkscape:isstock="true">
      <path
         id="path1668"
         d="M -2.5,-1.0 C -2.5,1.7600000 -4.7400000,4.0 -7.5,4.0 C -10.260000,4.0 -12.5,1.7600000 -12.5,-1.0 C -12.5,-3.7600000 -10.260000,-6.0 -7.5,-6.0 C -4.7400000,-6.0 -2.5,-3.7600000 -2.5,-1.0 z "
         style="fill-rule:evenodd;stroke:#000000;stroke-width:1.0pt"
         transform="scale(0.8) translate(7.4, 1)" />
    </marker>
    <marker
       inkscape:stockid="DotL"
       orient="auto"
       refY="0.0"
       refX="0.0"
       id="DotL"
       style="overflow:visible"
       inkscape:isstock="true">
      <path
         id="path1459"
         d="M -2.5,-1.0 C -2.5,1.7600000 -4.7400000,4.0 -7.5,4.0 C -10.260000,4.0 -12.5,1.7600000 -12.5,-1.0 C -12.5,-3.7600000 -10.260000,-6.0 -7.5,-6.0 C -4.7400000,-6.0 -2.5,-3.7600000 -2.5,-1.0 z "
         style="fill-rule:evenodd;stroke:#000000;stroke-width:1.0pt"
         transform="scale(0.8) translate(7.4, 1)" />
    </marker>
    <marker
       inkscape:isstock="true"
       style="overflow:visible"
       id="DiamondL-7"
       refX="0.0"
       refY="0.0"
       orient="auto"
       inkscape:stockid="DiamondL">
      <path
         transform="scale(0.8)"
         style="fill-rule:evenodd;stroke:#000000;stroke-width:1.0pt"
         d="M 0,-7.0710768 L -7.0710894,0 L 0,7.0710589 L 7.0710462,0 L 0,-7.0710768 z "
         id="path1477-5" />
    </marker>
    <marker
       inkscape:isstock="true"
       style="overflow:visible"
       id="Club-3"
       refX="0.0"
       refY="0.0"
       orient="auto"
       inkscape:stockid="Club">
      <path
         transform="scale(0.6)"
         style="fill-rule:evenodd;stroke:#000000;stroke-width:0.74587913pt"
         d="M -1.5971367,-7.0977635 C -3.4863874,-7.0977635 -5.0235187,-5.5606321 -5.0235187,-3.6713813 C -5.0235187,-3.0147015 -4.7851656,-2.4444556 -4.4641095,-1.9232271 C -4.5028609,-1.8911157 -4.5437814,-1.8647646 -4.5806531,-1.8299921 C -5.2030765,-2.6849849 -6.1700514,-3.2751330 -7.3077730,-3.2751330 C -9.1970245,-3.2751331 -10.734155,-1.7380016 -10.734155,0.15124914 C -10.734155,2.0404999 -9.1970245,3.5776313 -7.3077730,3.5776313 C -6.3143268,3.5776313 -5.4391540,3.1355702 -4.8137404,2.4588126 C -4.9384274,2.8137041 -5.0235187,3.1803000 -5.0235187,3.5776313 C -5.0235187,5.4668819 -3.4863874,7.0040135 -1.5971367,7.0040135 C 0.29211394,7.0040135 1.8292454,5.4668819 1.8292454,3.5776313 C 1.8292454,2.7842354 1.5136868,2.0838028 1.0600576,1.5031550 C 2.4152718,1.7663868 3.7718375,2.2973711 4.7661444,3.8340272 C 4.0279463,3.0958289 3.5540908,1.7534117 3.5540908,-0.058529361 L 2.9247554,-0.10514681 L 3.5074733,-0.12845553 C 3.5074733,-1.9403966 3.9580199,-3.2828138 4.6962183,-4.0210121 C 3.7371277,-2.5387813 2.4390549,-1.9946496 1.1299838,-1.7134486 C 1.5341802,-2.2753578 1.8292454,-2.9268556 1.8292454,-3.6713813 C 1.8292454,-5.5606319 0.29211394,-7.0977635 -1.5971367,-7.0977635 z "
         id="path1627-5" />
    </marker>
    <marker
       inkscape:isstock="true"
       style="overflow:visible"
       id="marker1686-6"
       refX="0.0"
       refY="0.0"
       orient="auto"
       inkscape:stockid="DotL">
      <path
         transform="scale(0.8) translate(7.4, 1)"
         style="fill-rule:evenodd;stroke:#000000;stroke-width:1.0pt"
         d="M -2.5,-1.0 C -2.5,1.7600000 -4.7400000,4.0 -7.5,4.0 C -10.260000,4.0 -12.5,1.7600000 -12.5,-1.0 C -12.5,-3.7600000 -10.260000,-6.0 -7.5,-6.0 C -4.7400000,-6.0 -2.5,-3.7600000 -2.5,-1.0 z "
         id="path1684-2" />
    </marker>
    <marker
       inkscape:isstock="true"
       style="overflow:visible"
       id="marker1670-9"
       refX="0.0"
       refY="0.0"
       orient="auto"
       inkscape:stockid="DotL">
      <path
         transform="scale(0.8) translate(7.4, 1)"
         style="fill-rule:evenodd;stroke:#000000;stroke-width:1.0pt"
         d="M -2.5,-1.0 C -2.5,1.7600000 -4.7400000,4.0 -7.5,4.0 C -10.260000,4.0 -12.5,1.7600000 -12.5,-1.0 C -12.5,-3.7600000 -10.260000,-6.0 -7.5,-6.0 C -4.7400000,-6.0 -2.5,-3.7600000 -2.5,-1.0 z "
         id="path1668-1" />
    </marker>
    <marker
       inkscape:isstock="true"
       style="overflow:visible"
       id="DotL-2"
       refX="0.0"
       refY="0.0"
       orient="auto"
       inkscape:stockid="DotL">
      <path
         transform="scale(0.8) translate(7.4, 1)"
         style="fill-rule:evenodd;stroke:#000000;stroke-width:1.0pt"
         d="M -2.5,-1.0 C -2.5,1.7600000 -4.7400000,4.0 -7.5,4.0 C -10.260000,4.0 -12.5,1.7600000 -12.5,-1.0 C -12.5,-3.7600000 -10.260000,-6.0 -7.5,-6.0 C -4.7400000,-6.0 -2.5,-3.7600000 -2.5,-1.0 z "
         id="path1459-7" />
    </marker>
    <radialGradient
       inkscape:collect="always"
       xlink:href="#linearGradient1065"
       id="radialGradient1067"
       cx="13.229166"
       cy="13.229166"
       fx="13.229166"
       fy="13.229166"
       r="12.567708"
       gradientUnits="userSpaceOnUse"
       gradientTransform="matrix(0.95744687,0,0,0.95744687,0.56294321,0.56294321)" />
  </defs>
  <sodipodi:namedview
     id="base"
     pagecolor="#ffffff"
     bordercolor="#666666"
     borderopacity="1.0"
     inkscape:pageopacity="0.0"
     inkscape:pageshadow="2"
     inkscape:zoom="11.313708"
     inkscape:cx="47.000981"
     inkscape:cy="50.803855"
     inkscape:document-units="px"
     inkscape:current-layer="layer3"
     showgrid="true"
     units="px"
     inkscape:pagecheckerboard="true"
     inkscape:window-width="2493"
     inkscape:window-height="1385"
     inkscape:window-x="67"
     inkscape:window-y="27"
     inkscape:window-maximized="1">
    <inkscape:grid
       type="xygrid"
       id="grid1394" />
  </sodipodi:namedview>
  <metadata
     id="metadata843">
    <rdf:RDF>
      <cc:Work
         rdf:about="">
        <dc:format>image/svg+xml</dc:format>
        <dc:type
           rdf:resource="http://purl.org/dc/dcmitype/StillImage" />
        <dc:title />
      </cc:Work>
    </rdf:RDF>
  </metadata>
  <g
     inkscape:groupmode="layer"
     id="layer6"
     inkscape:label="Layer 6">
    <rect
       style="fill:#000000;fill-opacity:0.98230088;stroke:url(#radialGradient1067);stroke-width:0.38549791;stroke-opacity:1;stroke-miterlimit:4;stroke-dasharray:none"
       id="rect1059"
       width="23.8125"
       height="23.8125"
       x="1.3229166"
       y="1.3229166" />
  </g>
  <g
     inkscape:groupmode="layer"
     id="layer2"
     inkscape:label="Layer 2"
     style="display:inline" />
  <g
     inkscape:groupmode="layer"
     id="layer3"
     inkscape:label="Layer 3"
     style="display:inline">
    <path
       style="fill:#413939;fill-opacity:1;stroke:none;stroke-width:0.27781248px;stroke-linecap:butt;stroke-linejoin:miter;stroke-opacity:1"
       d="m 2.1166666,2.1166666 h 9.7234374 1.389062 1.389063 9.723437 v 9.7234374 1.389062 1.389063 9.723437 H 14.618229 13.229166 11.840104 2.1166666 v -9.723437 -1.389063 -1.389062 z"
       id="path932"
       inkscape:connector-curvature="0"
       sodipodi:nodetypes="ccccccccccccccccc" />
    <path
       style="fill:#5c5b60;fill-opacity:1;stroke:none;stroke-width:0.26458332px;stroke-linecap:butt;stroke-linejoin:miter;stroke-opacity:1"
       d="m 1.3229166,1.3229166 0.79375,0.79375 22.2249994,0 0.79375,-0.79375 z"
       id="path936"
       inkscape:connector-curvature="0"
       sodipodi:nodetypes="ccccc" />
    <path
       sodipodi:nodetypes="ccccc"
       inkscape:connector-curvature="0"
       id="path940"
       d="m 25.135416,25.135416 -0.79375,-0.79375 H 2.1166666 l -0.79375,0.79375 z"
       style="fill:#2e2a2b;fill-opacity:1;stroke:none;stroke-width:0.26458332px;stroke-linecap:butt;stroke-linejoin:miter;stroke-opacity:1" />
    <path
       style="fill:#2e2a2b;fill-opacity:1;stroke:none;stroke-width:0.26458332px;stroke-linecap:butt;stroke-linejoin:miter;stroke-opacity:1"
       d="m 25.135416,1.3229166 -0.79375,0.79375 V 24.341666 l 0.79375,0.79375 z"
       id="path942"
       inkscape:connector-curvature="0"
       sodipodi:nodetypes="ccccc" />
    <path
       sodipodi:nodetypes="ccccc"
       inkscape:connector-curvature="0"
       id="path944"
       d="m 1.3229166,25.135416 0.79375,-0.79375 c -0.00307,-7.059697 0.00133,-15.165302 0,-22.2249994 l -0.79375,-0.79375 c 0.00157,8.2902823 0.00168,15.5222174 0,23.8124994 z"
       style="fill:#5c5b60;fill-opacity:1;stroke:none;stroke-width:0.26458332px;stroke-linecap:butt;stroke-linejoin:miter;stroke-opacity:1" />
    <g
       id="g99"
       transform="translate(-44.63461,-22.341389)">
      <g
         style="display:inline"
         inkscape:label="Layer 2"
         id="layer2-6" />
      <g
         style="display:inline"
         inkscape:label="Layer 3"
         id="layer3-0">
        <path
           sodipodi:nodetypes="ccccccccccccccccc"
           inkscape:connector-curvature="0"
           id="path932-6"
           d="m 2.6458333,0 h 10.4179687 1.48828 1.488282 10.417969 v 10.417969 1.48828 1.488282 V 23.8125 H 16.040364 14.552082 13.063802 2.6458333 v -10.417969 -1.488282 -1.48828 z"
           style="fill:#413939;fill-opacity:1;stroke:none;stroke-width:0.29765624px;stroke-linecap:butt;stroke-linejoin:miter;stroke-opacity:1" />
        <path
           style="fill:#2e2a2b;fill-opacity:1;stroke:none;stroke-width:0.26458332px;stroke-linecap:butt;stroke-linejoin:miter;stroke-opacity:1"
           d="M 26.9875,24.60625 V 23.8125 H 14.552083 13.229166 11.90625 2.6458328 l -0.79375,0.79375 h 10.0541672 1.322916 1.322917 z"
           id="path940-2"
           inkscape:connector-curvature="0"
           sodipodi:nodetypes="ccccccccccc" />
        <path
           style="fill:#403c41;fill-opacity:1;stroke:none;stroke-width:0.26458332px;stroke-linecap:butt;stroke-linejoin:miter;stroke-opacity:1"
           d="m 1.8562425,24.618814 0.7935996,-0.793901 -0.00175,-9.260415 -0.00226,-1.335332 0.00175,-1.310501 -0.00175,-12.18324833 h -0.79375 l 0.00175,12.18339833 -0.00175,1.310351 0.00225,1.335482 z"
           id="path944-6"
           inkscape:connector-curvature="0"
           sodipodi:nodetypes="ccccccccccc" />
      </g>
      <g
         style="display:inline"
         inkscape:label="Layer 4"
         id="layer4-1">
        <path
           sodipodi:nodetypes="ccccccccc"
           inkscape:connector-curvature="0"
           id="path954-8"
           d="m 8.5044635,18.898809 10.3943445,1e-6 -3.77976,-3.779762 3.779761,-3.779762 -3.77976,-3.7797618 -3.779764,3.7797608 -3.7797602,-3.7797619 -2.3e-6,11.3392849 z"
           style="fill:#393736;fill-opacity:1;stroke:none;stroke-width:0.18898809px;stroke-linecap:butt;stroke-linejoin:miter;stroke-opacity:1" />
        <path
           inkscape:connector-curvature="0"
           id="path960-7"
           d="M 7.5595225,18.898808 6.6145823,19.843749 6.614584,6.6145819 7.5595248,7.5595231 Z"
           style="fill:#403c41;fill-opacity:1;stroke:none;stroke-width:0.18898809px;stroke-linecap:butt;stroke-linejoin:miter;stroke-opacity:1" />
        <path
           inkscape:connector-curvature="0"
           id="path964-9"
           d="M 19.84375,11.339286 15.119049,6.6145833 v 0.9449409 l 3.77976,3.7797618 z"
           style="fill:#2e2a2b;fill-opacity:1;stroke:none;stroke-width:0.18898809px;stroke-linecap:butt;stroke-linejoin:miter;stroke-opacity:1" />
        <path
           inkscape:connector-curvature="0"
           id="path968-2"
           d="m 7.559525,6.6145821 -0.944941,-2e-7 0.9449408,0.9449412 z"
           style="fill:#403c41;fill-opacity:1;stroke:none;stroke-width:0.18898809px;stroke-linecap:butt;stroke-linejoin:miter;stroke-opacity:1" />
        <path
           inkscape:connector-curvature="0"
           id="path970-0"
           d="m 19.843749,18.89881 -3.779761,-3.779762 h -0.94494 l 3.77976,3.779762 z"
           style="fill:#2e2a2b;fill-opacity:1;stroke:none;stroke-width:0.18898809px;stroke-linecap:butt;stroke-linejoin:miter;stroke-opacity:1" />
        <path
           inkscape:connector-curvature="0"
           id="path972-2"
           d="m 19.84375,11.339286 -3.779762,3.779762 h -0.94494 l 3.779761,-3.779762 z"
           style="fill:#45494d;fill-opacity:1;stroke:none;stroke-width:0.18898809px;stroke-linecap:butt;stroke-linejoin:miter;stroke-opacity:1" />
        <path
           inkscape:connector-curvature="0"
           id="path974-3"
           d="m 7.559525,6.6145821 3.77976,3.7797629 v 0.94494 L 7.5595248,7.5595231 Z"
           style="fill:#2e2a2b;fill-opacity:1;stroke:none;stroke-width:0.18898809px;stroke-linecap:butt;stroke-linejoin:miter;stroke-opacity:1" />
        <path
           inkscape:connector-curvature="0"
           id="path976-7"
           d="M 11.339285,10.394345 15.119049,6.6145833 V 7.5595242 L 11.339285,11.339285 Z"
           style="fill:#2e2a2b;fill-opacity:1;stroke:none;stroke-width:0.18898809px;stroke-linecap:butt;stroke-linejoin:miter;stroke-opacity:1" />
        <path
           inkscape:connector-curvature="0"
           id="path978-5"
           d="m 6.6145823,19.843749 13.2291667,2e-6 -0.94494,-0.944941 -11.3392855,-1e-6 z"
           style="fill:#5c5b60;fill-opacity:1;stroke:none;stroke-width:0.18898809px;stroke-linecap:butt;stroke-linejoin:miter;stroke-opacity:1" />
        <path
           style="fill:#403c41;fill-opacity:1;stroke:none;stroke-width:0.18898809px;stroke-linecap:butt;stroke-linejoin:miter;stroke-opacity:1"
           d="m 19.843749,18.89881 h -0.944941 l 0.944941,0.944941 z"
           id="path980-9"
           inkscape:connector-curvature="0" />
      </g>
      <g
         style="display:inline"
         transform="translate(0,-270.54167)"
         id="layer1-2"
         inkscape:label="Layer 1" />
    </g>
  </g>
  <g
     inkscape:groupmode="layer"
     id="layer4"
     inkscape:label="Layer 4"
     style="display:inline">
    <path
       style="fill:#3f3c3b;fill-opacity:1;stroke:none;stroke-width:0.18898809px;stroke-linecap:butt;stroke-linejoin:miter;stroke-opacity:1"
       d="m -29.671131,4.9136905 -10.394344,-2e-7 3.77976,3.7797615 -3.779761,3.7797632 3.779761,3.779761 3.779763,-3.779761 3.779761,3.779761 1e-6,-11.3392854 z"
       id="path954"
       inkscape:connector-curvature="0"
       sodipodi:nodetypes="ccccccccc" />
    <path
       style="fill:#403c41;fill-opacity:1;stroke:none;stroke-width:0.18898809px;stroke-linecap:butt;stroke-linejoin:miter;stroke-opacity:1"
       d="m -28.72619,4.9136906 0.94494,-0.9449404 V 17.197917 l -0.944941,-0.944941 z"
       id="path960"
       inkscape:connector-curvature="0" />
    <path
       style="fill:#2e2a2b;fill-opacity:1;stroke:none;stroke-width:0.18898809px;stroke-linecap:butt;stroke-linejoin:miter;stroke-opacity:1"
       d="m -41.010416,12.473215 4.724701,4.724702 v -0.944941 l -3.779761,-3.779761 z"
       id="path964"
       inkscape:connector-curvature="0" />
    <path
       style="fill:#403c41;fill-opacity:1;stroke:none;stroke-width:0.18898809px;stroke-linecap:butt;stroke-linejoin:miter;stroke-opacity:1"
       d="m -28.726191,17.197917 h 0.944941 l -0.944941,-0.944941 z"
       id="path968"
       inkscape:connector-curvature="0" />
    <path
       style="fill:#5c5b60;fill-opacity:1;stroke:none;stroke-width:0.18898809px;stroke-linecap:butt;stroke-linejoin:miter;stroke-opacity:1"
       d="m -41.010416,4.9136903 3.779761,3.7797615 h 0.94494 l -3.77976,-3.7797615 z"
       id="path970"
       inkscape:connector-curvature="0" />
    <path
       style="fill:#45494d;fill-opacity:1;stroke:none;stroke-width:0.18898809px;stroke-linecap:butt;stroke-linejoin:miter;stroke-opacity:1"
       d="m -41.010416,12.473215 3.779761,-3.7797632 h 0.94494 l -3.779761,3.7797632 z"
       id="path972"
       inkscape:connector-curvature="0" />
    <path
       style="fill:#45494d;fill-opacity:1;stroke:none;stroke-width:0.18898809px;stroke-linecap:butt;stroke-linejoin:miter;stroke-opacity:1"
       d="m -28.726191,17.197917 -3.779761,-3.779762 v -0.94494 l 3.779761,3.779761 z"
       id="path974"
       inkscape:connector-curvature="0" />
    <path
       style="fill:#5c5b60;fill-opacity:1;stroke:none;stroke-width:0.18898809px;stroke-linecap:butt;stroke-linejoin:miter;stroke-opacity:1"
       d="m -32.505952,13.418155 -3.779763,3.779762 v -0.944941 l 3.779763,-3.779761 z"
       id="path976"
       inkscape:connector-curvature="0" />
    <path
       style="fill:#2e2a2b;fill-opacity:1;stroke:none;stroke-width:0.18898809px;stroke-linecap:butt;stroke-linejoin:miter;stroke-opacity:1"
       d="m -27.78125,3.96875 h -13.229166 l 0.94494,0.9449405 h 11.339285 z"
       id="path978"
       inkscape:connector-curvature="0" />
    <path
       inkscape:connector-curvature="0"
       id="path980"
       d="m -41.010416,4.9136907 h 0.94494 l -0.94494,-0.9449408 z"
       style="fill:#403c41;fill-opacity:1;stroke:none;stroke-width:0.18898809px;stroke-linecap:butt;stroke-linejoin:miter;stroke-opacity:1" />
  </g>
  <g
     inkscape:label="Layer 1"
     inkscape:groupmode="layer"
     id="layer1"
     transform="translate(0,-270.54167)"
     style="display:inline" />
  <g
     inkscape:groupmode="layer"
     id="layer5"
     inkscape:label="Layer 5" />
</svg>
