<?xml version="1.0" encoding="UTF-8" standalone="no"?>
<!-- Created with Inkscape (http://www.inkscape.org/) -->

<svg
   xmlns:dc="http://purl.org/dc/elements/1.1/"
   xmlns:cc="http://creativecommons.org/ns#"
   xmlns:rdf="http://www.w3.org/1999/02/22-rdf-syntax-ns#"
   xmlns:svg="http://www.w3.org/2000/svg"
   xmlns="http://www.w3.org/2000/svg"
   xmlns:xlink="http://www.w3.org/1999/xlink"
   xmlns:sodipodi="http://sodipodi.sourceforge.net/DTD/sodipodi-0.dtd"
   xmlns:inkscape="http://www.inkscape.org/namespaces/inkscape"
   width="100"
   height="300"
   viewBox="0 0 26.458333 79.375002"
   version="1.1"
   id="svg8"
   inkscape:version="0.92.3 (2405546, 2018-03-11)"
   sodipodi:docname="clasp.svg">
  <defs
     id="defs2">
    <linearGradient
       id="linearGradient1813"
       inkscape:collect="always">
      <stop
         id="stop1809"
         offset="0"
         style="stop-color:#2e2a2b;stop-opacity:1" />
      <stop
         id="stop1811"
         offset="1"
         style="stop-color:#5c5b60;stop-opacity:1" />
    </linearGradient>
    <marker
       inkscape:isstock="true"
       style="overflow:visible"
       id="DiamondL"
       refX="0.0"
       refY="0.0"
       orient="auto"
       inkscape:stockid="DiamondL">
      <path
         transform="scale(0.8)"
         style="fill-rule:evenodd;stroke:#000000;stroke-width:1.0pt"
         d="M 0,-7.0710768 L -7.0710894,0 L 0,7.0710589 L 7.0710462,0 L 0,-7.0710768 z "
         id="path1477" />
    </marker>
    <marker
       inkscape:isstock="true"
       style="overflow:visible"
       id="Club"
       refX="0.0"
       refY="0.0"
       orient="auto"
       inkscape:stockid="Club">
      <path
         transform="scale(0.6)"
         style="fill-rule:evenodd;stroke:#000000;stroke-width:0.74587913pt"
         d="M -1.5971367,-7.0977635 C -3.4863874,-7.0977635 -5.0235187,-5.5606321 -5.0235187,-3.6713813 C -5.0235187,-3.0147015 -4.7851656,-2.4444556 -4.4641095,-1.9232271 C -4.5028609,-1.8911157 -4.5437814,-1.8647646 -4.5806531,-1.8299921 C -5.2030765,-2.6849849 -6.1700514,-3.2751330 -7.3077730,-3.2751330 C -9.1970245,-3.2751331 -10.734155,-1.7380016 -10.734155,0.15124914 C -10.734155,2.0404999 -9.1970245,3.5776313 -7.3077730,3.5776313 C -6.3143268,3.5776313 -5.4391540,3.1355702 -4.8137404,2.4588126 C -4.9384274,2.8137041 -5.0235187,3.1803000 -5.0235187,3.5776313 C -5.0235187,5.4668819 -3.4863874,7.0040135 -1.5971367,7.0040135 C 0.29211394,7.0040135 1.8292454,5.4668819 1.8292454,3.5776313 C 1.8292454,2.7842354 1.5136868,2.0838028 1.0600576,1.5031550 C 2.4152718,1.7663868 3.7718375,2.2973711 4.7661444,3.8340272 C 4.0279463,3.0958289 3.5540908,1.7534117 3.5540908,-0.058529361 L 2.9247554,-0.10514681 L 3.5074733,-0.12845553 C 3.5074733,-1.9403966 3.9580199,-3.2828138 4.6962183,-4.0210121 C 3.7371277,-2.5387813 2.4390549,-1.9946496 1.1299838,-1.7134486 C 1.5341802,-2.2753578 1.8292454,-2.9268556 1.8292454,-3.6713813 C 1.8292454,-5.5606319 0.29211394,-7.0977635 -1.5971367,-7.0977635 z "
         id="path1627" />
    </marker>
    <marker
       inkscape:isstock="true"
       style="overflow:visible"
       id="marker1686"
       refX="0.0"
       refY="0.0"
       orient="auto"
       inkscape:stockid="DotL">
      <path
         transform="scale(0.8) translate(7.4, 1)"
         style="fill-rule:evenodd;stroke:#000000;stroke-width:1.0pt"
         d="M -2.5,-1.0 C -2.5,1.7600000 -4.7400000,4.0 -7.5,4.0 C -10.260000,4.0 -12.5,1.7600000 -12.5,-1.0 C -12.5,-3.7600000 -10.260000,-6.0 -7.5,-6.0 C -4.7400000,-6.0 -2.5,-3.7600000 -2.5,-1.0 z "
         id="path1684" />
    </marker>
    <marker
       inkscape:isstock="true"
       style="overflow:visible"
       id="marker1670"
       refX="0.0"
       refY="0.0"
       orient="auto"
       inkscape:stockid="DotL">
      <path
         transform="scale(0.8) translate(7.4, 1)"
         style="fill-rule:evenodd;stroke:#000000;stroke-width:1.0pt"
         d="M -2.5,-1.0 C -2.5,1.7600000 -4.7400000,4.0 -7.5,4.0 C -10.260000,4.0 -12.5,1.7600000 -12.5,-1.0 C -12.5,-3.7600000 -10.260000,-6.0 -7.5,-6.0 C -4.7400000,-6.0 -2.5,-3.7600000 -2.5,-1.0 z "
         id="path1668" />
    </marker>
    <marker
       inkscape:isstock="true"
       style="overflow:visible"
       id="DotL"
       refX="0.0"
       refY="0.0"
       orient="auto"
       inkscape:stockid="DotL">
      <path
         transform="scale(0.8) translate(7.4, 1)"
         style="fill-rule:evenodd;stroke:#000000;stroke-width:1.0pt"
         d="M -2.5,-1.0 C -2.5,1.7600000 -4.7400000,4.0 -7.5,4.0 C -10.260000,4.0 -12.5,1.7600000 -12.5,-1.0 C -12.5,-3.7600000 -10.260000,-6.0 -7.5,-6.0 C -4.7400000,-6.0 -2.5,-3.7600000 -2.5,-1.0 z "
         id="path1459" />
    </marker>
    <linearGradient
       inkscape:collect="always"
       xlink:href="#linearGradient1813"
       id="linearGradient1194"
       x1="14.022917"
       y1="79.639587"
       x2="10.31875"
       y2="75.935417"
       gradientUnits="userSpaceOnUse" />
  </defs>
  <sodipodi:namedview
     id="base"
     pagecolor="#ffffff"
     bordercolor="#666666"
     borderopacity="1.0"
     inkscape:pageopacity="0.0"
     inkscape:pageshadow="2"
     inkscape:zoom="5.6568543"
     inkscape:cx="41.221793"
     inkscape:cy="206.51028"
     inkscape:document-units="px"
     inkscape:current-layer="layer1"
     showgrid="true"
     inkscape:pagecheckerboard="true"
     units="px"
     inkscape:snap-midpoints="true"
     inkscape:snap-smooth-nodes="true"
     showguides="false"
     inkscape:window-width="2493"
     inkscape:window-height="1385"
     inkscape:window-x="67"
     inkscape:window-y="27"
     inkscape:window-maximized="1">
    <inkscape:grid
       type="xygrid"
       id="grid815"
       color="#ffcc9d"
       opacity="0.1254902"
       empcolor="#ff3fff"
       empopacity="0.25098039" />
  </sodipodi:namedview>
  <metadata
     id="metadata5">
    <rdf:RDF>
      <cc:Work
         rdf:about="">
        <dc:format>image/svg+xml</dc:format>
        <dc:type
           rdf:resource="http://purl.org/dc/dcmitype/StillImage" />
        <dc:title></dc:title>
      </cc:Work>
    </rdf:RDF>
  </metadata>
  <g
     inkscape:label="Layer 1"
     inkscape:groupmode="layer"
     id="layer1"
     transform="translate(0,-217.62497)">
    <path
       style="fill:#353538;fill-opacity:1;stroke:none;stroke-width:0.99999994px;stroke-linecap:butt;stroke-linejoin:miter;stroke-opacity:1"
       d="m 0,0 v 250 h 10 v 10 h 10 v 10 h 10 v 10 h 10 v 10 l 10,10 10,-10 v -10 h 10 v -10 h 10 v -10 h 10 v -10 h 10 V 0 Z"
       id="path1077"
       transform="matrix(0.26458333,0,0,0.26458333,0,217.62497)"
       inkscape:connector-curvature="0"
       sodipodi:nodetypes="cccccccccccccccccccccc" />
  </g>
  <g
     inkscape:groupmode="layer"
     id="layer2"
     inkscape:label="Layer 2">
    <path
       style="fill:#5c5b60;stroke:none;stroke-width:0.26458332px;stroke-linecap:butt;stroke-linejoin:miter;stroke-opacity:1;fill-opacity:1"
       d="M 0,66.145832 0.52916666,65.616666 V 0.52916666 L 0,0 Z"
       id="path1094"
       inkscape:connector-curvature="0" />
    <path
       style="fill:#2e2a2b;stroke:none;stroke-width:0.26458332px;stroke-linecap:butt;stroke-linejoin:miter;stroke-opacity:1;fill-opacity:1"
       d="M 0,66.145832 0.52916666,65.616666 H 3.175 l -0.5291667,0.529166 z"
       id="path1096"
       inkscape:connector-curvature="0" />
    <path
       style="fill:#5c5b60;stroke:none;stroke-width:0.26458332px;stroke-linecap:butt;stroke-linejoin:miter;stroke-opacity:1;fill-opacity:1"
       d="M 2.6458333,68.791666 3.175,68.262499 v -2.645833 l -0.5291667,0.529166 z"
       id="path1098"
       inkscape:connector-curvature="0" />
    <path
       inkscape:connector-curvature="0"
       id="path1100"
       d="M 2.6458334,68.791667 3.1750001,68.262501 H 5.8208334 L 5.2916667,68.791667 Z"
       style="fill:#2e2a2b;fill-opacity:1;stroke:none;stroke-width:0.26458332px;stroke-linecap:butt;stroke-linejoin:miter;stroke-opacity:1" />
    <path
       inkscape:connector-curvature="0"
       id="path1102"
       d="M 5.2916667,71.437501 5.8208334,70.908334 V 68.262501 L 5.2916667,68.791667 Z"
       style="fill:#5c5b60;fill-opacity:1;stroke:none;stroke-width:0.26458332px;stroke-linecap:butt;stroke-linejoin:miter;stroke-opacity:1" />
    <path
       style="fill:#2e2a2b;fill-opacity:1;stroke:none;stroke-width:0.26458332px;stroke-linecap:butt;stroke-linejoin:miter;stroke-opacity:1"
       d="M 5.2916667,71.4375 5.8208334,70.908334 H 8.4666667 L 7.9375,71.4375 Z"
       id="path1104"
       inkscape:connector-curvature="0" />
    <path
       style="fill:#5c5b60;fill-opacity:1;stroke:none;stroke-width:0.26458332px;stroke-linecap:butt;stroke-linejoin:miter;stroke-opacity:1"
       d="M 7.9375,74.083334 8.4666667,73.554167 V 70.908334 L 7.9375,71.4375 Z"
       id="path1106"
       inkscape:connector-curvature="0" />
    <path
       inkscape:connector-curvature="0"
       id="path1108"
       d="M 7.9375001,74.083333 8.4666668,73.554167 H 11.1125 l -0.529167,0.529166 z"
       style="fill:#2e2a2b;fill-opacity:1;stroke:none;stroke-width:0.26458332px;stroke-linecap:butt;stroke-linejoin:miter;stroke-opacity:1" />
    <path
       inkscape:connector-curvature="0"
       id="path1110"
       d="M 10.583333,76.729167 11.1125,76.2 v -2.645833 l -0.529167,0.529166 z"
       style="fill:#5c5b60;fill-opacity:1;stroke:none;stroke-width:0.26458332px;stroke-linecap:butt;stroke-linejoin:miter;stroke-opacity:1" />
    <path
       style="fill:url(#linearGradient1194);stroke:none;stroke-width:0.26458332px;stroke-linecap:butt;stroke-linejoin:miter;stroke-opacity:1;fill-opacity:1"
       d="m 11.1125,76.199999 2.116667,2.116667 v 1.058333 l -2.645834,-2.645833 z"
       id="path1112"
       inkscape:connector-curvature="0" />
    <path
       inkscape:connector-curvature="0"
       id="path1114"
       d="M 26.458334,66.145833 25.929167,65.616667 V 0.52916799 L 26.458334,1.3299999e-6 Z"
       style="fill:#2e2a2b;fill-opacity:1;stroke:none;stroke-width:0.26458332px;stroke-linecap:butt;stroke-linejoin:miter;stroke-opacity:1" />
    <path
       inkscape:connector-curvature="0"
       id="path1116"
       d="M 26.458334,66.145833 25.929167,65.616667 H 23.283334 L 23.8125,66.145833 Z"
       style="fill:#2e2a2b;fill-opacity:1;stroke:none;stroke-width:0.26458332px;stroke-linecap:butt;stroke-linejoin:miter;stroke-opacity:1" />
    <path
       inkscape:connector-curvature="0"
       id="path1118"
       d="M 23.8125,68.791667 23.283334,68.2625 v -2.645833 l 0.529166,0.529166 z"
       style="fill:#2e2a2b;fill-opacity:1;stroke:none;stroke-width:0.26458332px;stroke-linecap:butt;stroke-linejoin:miter;stroke-opacity:1" />
    <path
       style="fill:#2e2a2b;fill-opacity:1;stroke:none;stroke-width:0.26458332px;stroke-linecap:butt;stroke-linejoin:miter;stroke-opacity:1"
       d="M 23.8125,68.791668 23.283334,68.262502 H 20.6375 l 0.529167,0.529166 z"
       id="path1120"
       inkscape:connector-curvature="0" />
    <path
       style="fill:#2e2a2b;fill-opacity:1;stroke:none;stroke-width:0.26458332px;stroke-linecap:butt;stroke-linejoin:miter;stroke-opacity:1"
       d="M 21.166667,71.437502 20.6375,70.908335 v -2.645833 l 0.529167,0.529166 z"
       id="path1122"
       inkscape:connector-curvature="0" />
    <path
       inkscape:connector-curvature="0"
       id="path1124"
       d="M 21.166667,71.437501 20.6375,70.908335 h -2.645833 l 0.529167,0.529166 z"
       style="fill:#2e2a2b;fill-opacity:1;stroke:none;stroke-width:0.26458332px;stroke-linecap:butt;stroke-linejoin:miter;stroke-opacity:1" />
    <path
       inkscape:connector-curvature="0"
       id="path1126"
       d="m 18.520834,74.083335 -0.529167,-0.529167 v -2.645833 l 0.529167,0.529166 z"
       style="fill:#2e2a2b;fill-opacity:1;stroke:none;stroke-width:0.26458332px;stroke-linecap:butt;stroke-linejoin:miter;stroke-opacity:1" />
    <path
       style="fill:#2e2a2b;fill-opacity:1;stroke:none;stroke-width:0.26458332px;stroke-linecap:butt;stroke-linejoin:miter;stroke-opacity:1"
       d="m 18.520834,74.083334 -0.529167,-0.529166 h -2.645833 l 0.529167,0.529166 z"
       id="path1128"
       inkscape:connector-curvature="0" />
    <path
       style="fill:#2e2a2b;fill-opacity:1;stroke:none;stroke-width:0.26458332px;stroke-linecap:butt;stroke-linejoin:miter;stroke-opacity:1"
       d="m 15.875001,76.729168 -0.529167,-0.529167 v -2.645833 l 0.529167,0.529166 z"
       id="path1130"
       inkscape:connector-curvature="0" />
    <path
       inkscape:connector-curvature="0"
       id="path1132"
       d="m 15.345834,76.2 -2.116667,2.116667 V 79.375 l 2.645834,-2.645833 z"
       style="fill:#2e2a2b;fill-opacity:1;stroke:none;stroke-width:0.26458332px;stroke-linecap:butt;stroke-linejoin:miter;stroke-opacity:1" />
    <path
       inkscape:connector-curvature="0"
       id="path1134"
       d="M 7.9999984e-8,-7.1000001e-7 0.52916667,0.52916667 25.929167,0.52916738 26.458333,0 Z"
       style="fill:#5c5b60;fill-opacity:1;stroke:none;stroke-width:0.26458332px;stroke-linecap:butt;stroke-linejoin:miter;stroke-opacity:1"
       sodipodi:nodetypes="ccccc" />
  </g>
  <g
     inkscape:groupmode="layer"
     id="layer5"
     inkscape:label="Layer 3" />
</svg>
