<?xml version="1.0" encoding="UTF-8" standalone="no"?>
<!-- Created with Inkscape (http://www.inkscape.org/) -->

<svg
   xmlns:dc="http://purl.org/dc/elements/1.1/"
   xmlns:cc="http://creativecommons.org/ns#"
   xmlns:rdf="http://www.w3.org/1999/02/22-rdf-syntax-ns#"
   xmlns:svg="http://www.w3.org/2000/svg"
   xmlns="http://www.w3.org/2000/svg"
   xmlns:xlink="http://www.w3.org/1999/xlink"
   xmlns:sodipodi="http://sodipodi.sourceforge.net/DTD/sodipodi-0.dtd"
   xmlns:inkscape="http://www.inkscape.org/namespaces/inkscape"
   width="100"
   height="100"
   viewBox="0 0 26.458333 26.458333"
   version="1.1"
   id="svg846"
   inkscape:version="0.92.3 (2405546, 2018-03-11)"
   sodipodi:docname="hbitface.svg">
  <defs
     id="defs840">
    <linearGradient
       inkscape:collect="always"
       id="linearGradient1813">
      <stop
         style="stop-color:#2e2a2b;stop-opacity:1"
         offset="0"
         id="stop1809" />
      <stop
         style="stop-color:#5c5b60;stop-opacity:1"
         offset="1"
         id="stop1811" />
    </linearGradient>
    <marker
       inkscape:stockid="DiamondL"
       orient="auto"
       refY="0.0"
       refX="0.0"
       id="DiamondL"
       style="overflow:visible"
       inkscape:isstock="true">
      <path
         id="path1477"
         d="M 0,-7.0710768 L -7.0710894,0 L 0,7.0710589 L 7.0710462,0 L 0,-7.0710768 z "
         style="fill-rule:evenodd;stroke:#000000;stroke-width:1.0pt"
         transform="scale(0.8)" />
    </marker>
    <marker
       inkscape:stockid="Club"
       orient="auto"
       refY="0.0"
       refX="0.0"
       id="Club"
       style="overflow:visible"
       inkscape:isstock="true">
      <path
         id="path1627"
         d="M -1.5971367,-7.0977635 C -3.4863874,-7.0977635 -5.0235187,-5.5606321 -5.0235187,-3.6713813 C -5.0235187,-3.0147015 -4.7851656,-2.4444556 -4.4641095,-1.9232271 C -4.5028609,-1.8911157 -4.5437814,-1.8647646 -4.5806531,-1.8299921 C -5.2030765,-2.6849849 -6.1700514,-3.2751330 -7.3077730,-3.2751330 C -9.1970245,-3.2751331 -10.734155,-1.7380016 -10.734155,0.15124914 C -10.734155,2.0404999 -9.1970245,3.5776313 -7.3077730,3.5776313 C -6.3143268,3.5776313 -5.4391540,3.1355702 -4.8137404,2.4588126 C -4.9384274,2.8137041 -5.0235187,3.1803000 -5.0235187,3.5776313 C -5.0235187,5.4668819 -3.4863874,7.0040135 -1.5971367,7.0040135 C 0.29211394,7.0040135 1.8292454,5.4668819 1.8292454,3.5776313 C 1.8292454,2.7842354 1.5136868,2.0838028 1.0600576,1.5031550 C 2.4152718,1.7663868 3.7718375,2.2973711 4.7661444,3.8340272 C 4.0279463,3.0958289 3.5540908,1.7534117 3.5540908,-0.058529361 L 2.9247554,-0.10514681 L 3.5074733,-0.12845553 C 3.5074733,-1.9403966 3.9580199,-3.2828138 4.6962183,-4.0210121 C 3.7371277,-2.5387813 2.4390549,-1.9946496 1.1299838,-1.7134486 C 1.5341802,-2.2753578 1.8292454,-2.9268556 1.8292454,-3.6713813 C 1.8292454,-5.5606319 0.29211394,-7.0977635 -1.5971367,-7.0977635 z "
         style="fill-rule:evenodd;stroke:#000000;stroke-width:0.74587913pt"
         transform="scale(0.6)" />
    </marker>
    <marker
       inkscape:stockid="DotL"
       orient="auto"
       refY="0.0"
       refX="0.0"
       id="marker1686"
       style="overflow:visible"
       inkscape:isstock="true">
      <path
         id="path1684"
         d="M -2.5,-1.0 C -2.5,1.7600000 -4.7400000,4.0 -7.5,4.0 C -10.260000,4.0 -12.5,1.7600000 -12.5,-1.0 C -12.5,-3.7600000 -10.260000,-6.0 -7.5,-6.0 C -4.7400000,-6.0 -2.5,-3.7600000 -2.5,-1.0 z "
         style="fill-rule:evenodd;stroke:#000000;stroke-width:1.0pt"
         transform="scale(0.8) translate(7.4, 1)" />
    </marker>
    <marker
       inkscape:stockid="DotL"
       orient="auto"
       refY="0.0"
       refX="0.0"
       id="marker1670"
       style="overflow:visible"
       inkscape:isstock="true">
      <path
         id="path1668"
         d="M -2.5,-1.0 C -2.5,1.7600000 -4.7400000,4.0 -7.5,4.0 C -10.260000,4.0 -12.5,1.7600000 -12.5,-1.0 C -12.5,-3.7600000 -10.260000,-6.0 -7.5,-6.0 C -4.7400000,-6.0 -2.5,-3.7600000 -2.5,-1.0 z "
         style="fill-rule:evenodd;stroke:#000000;stroke-width:1.0pt"
         transform="scale(0.8) translate(7.4, 1)" />
    </marker>
    <marker
       inkscape:stockid="DotL"
       orient="auto"
       refY="0.0"
       refX="0.0"
       id="DotL"
       style="overflow:visible"
       inkscape:isstock="true">
      <path
         id="path1459"
         d="M -2.5,-1.0 C -2.5,1.7600000 -4.7400000,4.0 -7.5,4.0 C -10.260000,4.0 -12.5,1.7600000 -12.5,-1.0 C -12.5,-3.7600000 -10.260000,-6.0 -7.5,-6.0 C -4.7400000,-6.0 -2.5,-3.7600000 -2.5,-1.0 z "
         style="fill-rule:evenodd;stroke:#000000;stroke-width:1.0pt"
         transform="scale(0.8) translate(7.4, 1)" />
    </marker>
    <linearGradient
       inkscape:collect="always"
       xlink:href="#linearGradient1813"
       id="linearGradient1815"
       x1="23.547916"
       y1="6.0854168"
       x2="24.077084"
       y2="6.614583"
       gradientUnits="userSpaceOnUse" />
  </defs>
  <sodipodi:namedview
     id="base"
     pagecolor="#ffffff"
     bordercolor="#666666"
     borderopacity="1.0"
     inkscape:pageopacity="0.0"
     inkscape:pageshadow="2"
     inkscape:zoom="3.959798"
     inkscape:cx="70.874704"
     inkscape:cy="82.256263"
     inkscape:document-units="px"
     inkscape:current-layer="layer4"
     showgrid="true"
     units="px"
     inkscape:pagecheckerboard="true"
     inkscape:window-width="2560"
     inkscape:window-height="1017"
     inkscape:window-x="-8"
     inkscape:window-y="767"
     inkscape:window-maximized="1">
    <inkscape:grid
       type="xygrid"
       id="grid1394" />
  </sodipodi:namedview>
  <metadata
     id="metadata843">
    <rdf:RDF>
      <cc:Work
         rdf:about="">
        <dc:format>image/svg+xml</dc:format>
        <dc:type
           rdf:resource="http://purl.org/dc/dcmitype/StillImage" />
        <dc:title></dc:title>
      </cc:Work>
    </rdf:RDF>
  </metadata>
  <g
     inkscape:groupmode="layer"
     id="layer2"
     inkscape:label="Layer 2">
    <path
       style="fill:#353538;stroke:none;stroke-width:0.26458332px;stroke-linecap:butt;stroke-linejoin:miter;stroke-opacity:1;fill-opacity:1"
       d="M 3.96875,25.135416 1.3229166,22.489583 V 3.96875 L 3.96875,1.3229166 H 22.489583 L 25.135416,3.96875 v 18.520833 l -2.645833,2.645833 z"
       id="path1765"
       inkscape:connector-curvature="0" />
    <g
       aria-label="CUBEette"
       inkscape:transform-center-x="0.0732521"
       style="font-style:normal;font-weight:normal;font-size:2.84277153px;line-height:1.25;font-family:sans-serif;text-align:center;letter-spacing:0px;word-spacing:0px;text-anchor:middle;fill:#918a91;fill-opacity:1;stroke:none;stroke-width:0.06829982;stroke-miterlimit:4;stroke-dasharray:none;stroke-opacity:1"
       id="text1819">
      <path
         d="m 10.659882,24.219026 q -0.0083,0.04095 -0.02013,0.114516 -0.0118,0.07287 -0.01596,0.113128 -0.148524,0.02151 -0.265122,0.02151 -0.112434,0 -0.209599,-0.02776 -0.09647,-0.02845 -0.1776729,-0.09231 -0.080508,-0.06455 -0.1152099,-0.1513 -0.034702,-0.08676 -0.034702,-0.19433 0,-0.125621 0.0465,-0.225562 0.047194,-0.100635 0.1346432,-0.167263 0.08814,-0.06732 0.192942,-0.09578 0.104799,-0.02915 0.216539,-0.02915 0.102717,0 0.254017,0.02637 l 0.0014,0.0583 q 0.0014,0.03817 0.0042,0.08398 l 0.0049,0.07912 q -0.0812,-0.01943 -0.131867,-0.02637 -0.04997,-0.0069 -0.093,-0.0069 -0.09369,0 -0.168651,0.03748 -0.07496,0.03748 -0.117986,0.108964 -0.04303,0.07148 -0.04303,0.15824 0,0.07912 0.03609,0.136031 0.03609,0.05622 0.09717,0.08745 0.06177,0.03054 0.151994,0.03054 0.04928,0 0.106881,-0.0076 0.0583,-0.0083 0.145748,-0.03123 z"
         style="font-style:normal;font-variant:normal;font-weight:normal;font-stretch:normal;font-size:1.42138577px;font-family:'Eras Bold ITC';-inkscape-font-specification:'Eras Bold ITC';fill:#918a91;fill-opacity:1;stroke:none;stroke-width:0.06829982;stroke-miterlimit:4;stroke-dasharray:none;stroke-opacity:1"
         id="path1821" />
      <path
         d="m 10.833391,23.502781 q 0.108269,0.0014 0.152688,0.0014 0.05552,0 0.147829,-0.0014 l -0.02082,0.294965 q -0.0062,0.08328 -0.0097,0.156158 -0.0028,0.07287 -0.0028,0.100635 0,0.05275 0.0076,0.08814 0.0076,0.0354 0.02776,0.06038 0.02013,0.02429 0.05552,0.03678 0.03609,0.01249 0.07496,0.01249 0.03331,0 0.06246,-0.0076 0.0229,-0.0062 0.04095,-0.01735 0.01596,-0.01041 0.02776,-0.02429 0.01458,-0.01666 0.02568,-0.04164 0.01111,-0.0236 0.01666,-0.06108 0.0062,-0.03817 0.01666,-0.173509 0.009,-0.11521 0.01388,-0.210987 0.0042,-0.093 0.0076,-0.213069 0.1048,0.0014 0.165181,0.0014 l 0.140889,-0.0014 -0.03401,0.492765 q -6.94e-4,0.01388 -6.94e-4,0.0229 -0.0028,0.144359 -0.01805,0.204046 -0.01457,0.05899 -0.04928,0.102718 -0.0347,0.04372 -0.101329,0.07912 -0.06663,0.0347 -0.1513,0.04928 -0.08467,0.01457 -0.171427,0.01457 -0.07773,0 -0.149912,-0.0111 -0.06663,-0.0111 -0.120068,-0.03193 -0.05344,-0.02152 -0.093,-0.04997 -0.03609,-0.02637 -0.05552,-0.05344 -0.01943,-0.02776 -0.03054,-0.06593 -0.01249,-0.04303 -0.01249,-0.09231 0,-0.01666 0.0014,-0.04997 0.0014,-0.03401 0.0062,-0.09717 l 0.009,-0.111045 q 0.0035,-0.04373 0.0076,-0.128397 z"
         style="font-style:normal;font-variant:normal;font-weight:normal;font-stretch:normal;font-size:1.42138577px;font-family:'Eras Bold ITC';-inkscape-font-specification:'Eras Bold ITC';fill:#918a91;fill-opacity:1;stroke:none;stroke-width:0.06829982;stroke-miterlimit:4;stroke-dasharray:none;stroke-opacity:1"
         id="path1823" />
      <path
         d="m 11.89943,24.45014 q 0.01457,-0.152688 0.01943,-0.240136 0.0069,-0.119375 0.01319,-0.327585 0.0069,-0.208211 0.0069,-0.293578 0,-0.03054 -6.94e-4,-0.08606 0.09231,0.0021 0.146442,0.0021 0.07565,0 0.176285,-0.0028 0.100635,-0.0035 0.172815,-0.0035 0.08675,0 0.123538,0.0049 0.04858,0.0062 0.08467,0.02221 0.03678,0.01596 0.06108,0.03956 0.02707,0.02776 0.04234,0.06663 0.01735,0.04442 0.01735,0.09508 0,0.03956 -0.01041,0.07565 -0.0097,0.03609 -0.02845,0.06455 -0.01805,0.02776 -0.04095,0.0465 -0.0229,0.01874 -0.04511,0.02915 -0.02151,0.01041 -0.0583,0.02082 0.03678,0.0062 0.05899,0.01458 0.02221,0.0076 0.04719,0.02568 0.02568,0.01735 0.04581,0.04511 0.02013,0.02776 0.02984,0.06246 0.01041,0.03401 0.01041,0.07218 0,0.05275 -0.01735,0.09925 -0.01735,0.0465 -0.04858,0.07981 -0.02637,0.02846 -0.06871,0.04858 -0.04234,0.02013 -0.08675,0.02776 -0.03609,0.0056 -0.131867,0.0083 -0.09508,0.0028 -0.201964,0.0028 l -0.182532,-6.94e-4 z m 0.30954,-0.578132 h 0.09855 q 0.04858,0 0.06871,-0.0021 0.02082,-0.0028 0.04025,-0.009 0.01943,-0.0062 0.03331,-0.02082 0.01457,-0.01457 0.02013,-0.03262 0.0062,-0.01804 0.0062,-0.03609 0,-0.02568 -0.01249,-0.04581 -0.0118,-0.02013 -0.03887,-0.02984 -0.02707,-0.0097 -0.08259,-0.0097 h -0.124926 z m -0.01596,0.387966 h 0.133255 q 0.05275,0 0.07773,-0.0062 0.03054,-0.0076 0.0465,-0.02013 0.01596,-0.01249 0.02498,-0.03401 0.0097,-0.02152 0.0097,-0.04789 0,-0.0229 -0.0076,-0.04025 -0.0076,-0.01735 -0.0229,-0.02915 -0.01527,-0.0118 -0.03748,-0.01666 -0.02221,-0.0056 -0.0694,-0.0056 h -0.146441 z"
         style="font-style:normal;font-variant:normal;font-weight:normal;font-stretch:normal;font-size:1.42138577px;font-family:'Eras Bold ITC';-inkscape-font-specification:'Eras Bold ITC';fill:#918a91;fill-opacity:1;stroke:none;stroke-width:0.06829982;stroke-miterlimit:4;stroke-dasharray:none;stroke-opacity:1"
         id="path1825" />
      <path
         d="m 12.9037,24.45014 q 0.01735,-0.179061 0.02499,-0.299824 0.0083,-0.120762 0.01596,-0.320644 0.0083,-0.200577 0.0083,-0.265816 l -6.94e-4,-0.06108 q 0.163792,0.0014 0.396294,0.0014 0.214457,0 0.37825,-0.0014 l -0.0014,0.0229 q -6.94e-4,0.0083 -0.0035,0.06038 l -0.0042,0.07565 q -0.0014,0.02429 -0.0014,0.04928 -0.133949,-0.0056 -0.224867,-0.0056 -0.09994,0 -0.135337,6.94e-4 -0.0347,0 -0.108964,0.0028 l -0.0083,0.158934 q 0.0819,0.0021 0.19086,0.0021 0.03887,0 0.206822,-0.0049 -0.0069,0.08884 -0.01319,0.211681 -0.120069,-0.0014 -0.184614,-0.0014 -0.09578,0 -0.214457,0.0049 l -0.0083,0.168651 h 0.07981 q 0.03539,0 0.146441,-0.0021 l 0.143666,-0.0035 q 0.03192,-6.94e-4 0.106881,-0.0056 -0.0083,0.102717 -0.01388,0.212375 -0.169344,-0.0014 -0.371309,-0.0014 l -0.305376,6.94e-4 z"
         style="font-style:normal;font-variant:normal;font-weight:normal;font-stretch:normal;font-size:1.42138577px;font-family:'Eras Bold ITC';-inkscape-font-specification:'Eras Bold ITC';fill:#918a91;fill-opacity:1;stroke:none;stroke-width:0.06829982;stroke-miterlimit:4;stroke-dasharray:none;stroke-opacity:1"
         id="path1827" />
      <path
         d="m 14.521498,24.240541 q -0.009,0.04164 -0.0347,0.201271 -0.08051,0.01596 -0.135337,0.02082 -0.05483,0.0056 -0.111045,0.0056 -0.08259,0 -0.151994,-0.0118 -0.0694,-0.0111 -0.120069,-0.04025 -0.04997,-0.02915 -0.08398,-0.07218 -0.03401,-0.04372 -0.05205,-0.103411 -0.01735,-0.05969 -0.01735,-0.122844 0,-0.08884 0.0354,-0.173509 0.0354,-0.08537 0.09092,-0.133255 0.05622,-0.04789 0.129091,-0.06802 0.07287,-0.02013 0.149217,-0.02013 0.07912,0 0.150606,0.01874 0.07218,0.01805 0.122151,0.06385 0.04997,0.04581 0.07079,0.103411 0.02151,0.05761 0.02151,0.124232 0,0.03956 -0.009,0.08814 l -0.486519,6.94e-4 q -6.94e-4,0.01111 -6.94e-4,0.02013 0,0.07496 0.05344,0.110352 0.05344,0.0354 0.130479,0.0354 0.04581,0 0.104106,-0.01041 0.05899,-0.01111 0.145053,-0.03678 z m -0.426832,-0.224868 h 0.229032 q 6.94e-4,-0.0118 6.94e-4,-0.02013 0,-0.03609 -0.01319,-0.06177 -0.01249,-0.02568 -0.03678,-0.03748 -0.0236,-0.0118 -0.05344,-0.0118 -0.02082,0 -0.04026,0.0069 -0.01943,0.0062 -0.03539,0.01943 -0.01527,0.01249 -0.02568,0.02915 -0.01041,0.01666 -0.01527,0.03262 -0.0049,0.01527 -0.0097,0.04303 z"
         style="font-style:normal;font-variant:normal;font-weight:normal;font-stretch:normal;font-size:1.42138577px;font-family:'Eras Bold ITC';-inkscape-font-specification:'Eras Bold ITC';fill:#918a91;fill-opacity:1;stroke:none;stroke-width:0.06829982;stroke-miterlimit:4;stroke-dasharray:none;stroke-opacity:1"
         id="path1829" />
      <path
         d="m 15.191937,24.246093 q -0.01249,0.0583 -0.02151,0.113822 l -0.01527,0.08467 q -0.06871,0.01527 -0.107576,0.01943 -0.03817,0.0042 -0.07426,0.0042 -0.05899,0 -0.1048,-0.01041 -0.04581,-0.0097 -0.07634,-0.03609 -0.03054,-0.02707 -0.04164,-0.06177 -0.0111,-0.0347 -0.0111,-0.07357 0,-0.0069 6.94e-4,-0.02429 6.94e-4,-0.01805 0.0049,-0.07912 l 0.01527,-0.240136 h -0.10827 q 0.0035,-0.04789 0.0062,-0.126315 l 0.0021,-0.06454 h 0.11521 q 0.0042,-0.03193 0.01041,-0.139501 l 0.11868,-0.02429 q 0.03262,-0.0062 0.138807,-0.03192 -0.0049,0.09092 -0.0069,0.195718 h 0.15824 q -0.0056,0.144359 -0.0056,0.19086 h -0.159628 l -0.0083,0.173509 q -0.0014,0.03887 -0.0014,0.04997 0,0.03331 0.0069,0.05552 0.0076,0.02221 0.02568,0.03193 0.01874,0.0097 0.04095,0.0097 0.01666,0 0.0347,-0.0021 0.01805,-0.0028 0.06385,-0.01527 z"
         style="font-style:normal;font-variant:normal;font-weight:normal;font-stretch:normal;font-size:1.42138577px;font-family:'Eras Bold ITC';-inkscape-font-specification:'Eras Bold ITC';fill:#918a91;fill-opacity:1;stroke:none;stroke-width:0.06829982;stroke-miterlimit:4;stroke-dasharray:none;stroke-opacity:1"
         id="path1831" />
      <path
         d="m 15.797136,24.246093 q -0.01249,0.0583 -0.02152,0.113822 l -0.01527,0.08467 q -0.06871,0.01527 -0.107575,0.01943 -0.03817,0.0042 -0.07426,0.0042 -0.05899,0 -0.104799,-0.01041 -0.04581,-0.0097 -0.07634,-0.03609 -0.03054,-0.02707 -0.04164,-0.06177 -0.0111,-0.0347 -0.0111,-0.07357 0,-0.0069 6.94e-4,-0.02429 6.94e-4,-0.01805 0.0049,-0.07912 l 0.01527,-0.240136 h -0.10827 q 0.0035,-0.04789 0.0062,-0.126315 l 0.0021,-0.06454 h 0.11521 q 0.0042,-0.03193 0.01041,-0.139501 l 0.11868,-0.02429 q 0.03262,-0.0062 0.138808,-0.03192 -0.0049,0.09092 -0.0069,0.195718 h 0.15824 q -0.0056,0.144359 -0.0056,0.19086 h -0.159628 l -0.0083,0.173509 q -0.0014,0.03887 -0.0014,0.04997 0,0.03331 0.0069,0.05552 0.0076,0.02221 0.02568,0.03193 0.01874,0.0097 0.04095,0.0097 0.01666,0 0.0347,-0.0021 0.01804,-0.0028 0.06385,-0.01527 z"
         style="font-style:normal;font-variant:normal;font-weight:normal;font-stretch:normal;font-size:1.42138577px;font-family:'Eras Bold ITC';-inkscape-font-specification:'Eras Bold ITC';fill:#918a91;fill-opacity:1;stroke:none;stroke-width:0.06829982;stroke-miterlimit:4;stroke-dasharray:none;stroke-opacity:1"
         id="path1833" />
      <path
         d="m 16.573069,24.240541 q -0.009,0.04164 -0.0347,0.201271 -0.08051,0.01596 -0.135337,0.02082 -0.05483,0.0056 -0.111046,0.0056 -0.08259,0 -0.151994,-0.0118 -0.0694,-0.0111 -0.120068,-0.04025 -0.04997,-0.02915 -0.08398,-0.07218 -0.03401,-0.04372 -0.05205,-0.103411 -0.01735,-0.05969 -0.01735,-0.122844 0,-0.08884 0.0354,-0.173509 0.0354,-0.08537 0.09092,-0.133255 0.05622,-0.04789 0.129091,-0.06802 0.07287,-0.02013 0.149218,-0.02013 0.07912,0 0.150606,0.01874 0.07218,0.01805 0.12215,0.06385 0.04997,0.04581 0.07079,0.103411 0.02152,0.05761 0.02152,0.124232 0,0.03956 -0.009,0.08814 l -0.486519,6.94e-4 q -6.94e-4,0.01111 -6.94e-4,0.02013 0,0.07496 0.05344,0.110352 0.05344,0.0354 0.130479,0.0354 0.04581,0 0.104105,-0.01041 0.05899,-0.01111 0.145054,-0.03678 z m -0.426833,-0.224868 h 0.229032 q 6.94e-4,-0.0118 6.94e-4,-0.02013 0,-0.03609 -0.01319,-0.06177 -0.01249,-0.02568 -0.03678,-0.03748 -0.0236,-0.0118 -0.05344,-0.0118 -0.02082,0 -0.04025,0.0069 -0.01943,0.0062 -0.0354,0.01943 -0.01527,0.01249 -0.02568,0.02915 -0.01041,0.01666 -0.01527,0.03262 -0.0049,0.01527 -0.0097,0.04303 z"
         style="font-style:normal;font-variant:normal;font-weight:normal;font-stretch:normal;font-size:1.42138577px;font-family:'Eras Bold ITC';-inkscape-font-specification:'Eras Bold ITC';fill:#918a91;fill-opacity:1;stroke:none;stroke-width:0.06829982;stroke-miterlimit:4;stroke-dasharray:none;stroke-opacity:1"
         id="path1835" />
    </g>
  </g>
  <g
     inkscape:groupmode="layer"
     id="layer3"
     inkscape:label="Layer 3">
    <path
       style="fill:#5c5b60;fill-opacity:1;stroke:none;stroke-width:0.26458332px;stroke-linecap:butt;stroke-linejoin:miter;stroke-opacity:1"
       d="M 1.3229166,22.489583 V 3.96875 L 3.96875,1.3229166 H 22.489583 L 23.01875,0.79374999 H 3.4395833 L 0.79374999,3.4395833 V 23.01875 L 1.0583333,22.754166 Z"
       id="path1768"
       inkscape:connector-curvature="0"
       sodipodi:nodetypes="cccccccccc" />
    <path
       style="fill:#2e2a2b;fill-opacity:1;stroke:none;stroke-width:0.26458332px;stroke-linecap:butt;stroke-linejoin:miter;stroke-opacity:1"
       d="m 1.5875,22.225 0,-17.9916667 L 4.2333333,1.5875 H 22.489583 V 1.3229166 H 3.96875 L 1.3229166,3.96875 v 18.520833 z"
       id="path1772"
       inkscape:connector-curvature="0"
       sodipodi:nodetypes="ccccccccc" />
    <path
       style="fill:#45494d;fill-opacity:1;stroke:none;stroke-width:0.26458332px;stroke-linecap:butt;stroke-linejoin:miter;stroke-opacity:1"
       d="M 0.79374999,23.01875 3.4395833,25.664583 3.96875,25.135416 1.3229166,22.489583 Z"
       id="path1774"
       inkscape:connector-curvature="0"
       sodipodi:nodetypes="ccccc" />
    <path
       style="fill:#403c41;fill-opacity:1;stroke:none;stroke-width:0.26458332px;stroke-linecap:butt;stroke-linejoin:miter;stroke-opacity:1"
       d="M 1.3229166,22.489583 1.5875,22.225 4.2333333,24.870833 3.96875,25.135416 Z"
       id="path1776"
       inkscape:connector-curvature="0"
       sodipodi:nodetypes="ccccc" />
    <path
       style="fill:#5c5b60;stroke:none;stroke-width:0.26458332px;stroke-linecap:butt;stroke-linejoin:miter;stroke-opacity:1;fill-opacity:1"
       d="M 3.96875,25.135416 4.2333333,24.870833 H 22.225 L 24.870833,22.225 V 4.2333333 L 25.135416,3.96875 v 18.520833 l -2.645833,2.645833 z"
       id="path1778"
       inkscape:connector-curvature="0" />
    <path
       style="fill:#2e2a2b;fill-opacity:1;stroke:none;stroke-width:0.26458332px;stroke-linecap:butt;stroke-linejoin:miter;stroke-opacity:1"
       d="M 3.4395833,25.664583 H 23.01875 l 2.645833,-2.645833 0,-19.5791667 -0.529167,0.5291667 v 18.520833 l -2.645833,2.645833 H 3.96875 Z"
       id="path1780"
       inkscape:connector-curvature="0"
       sodipodi:nodetypes="ccccccccc" />
    <path
       inkscape:connector-curvature="0"
       id="path1782"
       d="M 25.664583,3.4395833 23.01875,0.79374999 22.489584,1.3229174 25.135417,3.9687509 Z"
       style="fill:#494a4c;fill-opacity:1;stroke:none;stroke-width:0.26458332px;stroke-linecap:butt;stroke-linejoin:miter;stroke-opacity:1"
       sodipodi:nodetypes="ccccc" />
    <path
       sodipodi:nodetypes="ccccc"
       inkscape:connector-curvature="0"
       id="path1784"
       d="M 25.135417,3.9687509 24.870834,4.2333339 22.225,1.5875002 22.489584,1.3229174 Z"
       style="fill:#403f41;fill-opacity:1;stroke:none;stroke-width:0.26458332px;stroke-linecap:butt;stroke-linejoin:miter;stroke-opacity:1" />
    <path
       style="fill:#2e2a2b;fill-opacity:1;stroke:none;stroke-width:0.26458332px;stroke-linecap:butt;stroke-linejoin:miter;stroke-opacity:1"
       d="M 3.7041666,22.489583 V 3.96875 L 3.96875,3.7041666 h 18.520833 l 0.264583,-0.2645833 -19.0499994,0 -0.2645833,0.2645833 0,19.0499994 z"
       id="path1788"
       inkscape:connector-curvature="0"
       sodipodi:nodetypes="ccccccccc" />
    <path
       style="fill:#5c5b60;fill-opacity:1;stroke:none;stroke-width:0.26458332px;stroke-linecap:butt;stroke-linejoin:miter;stroke-opacity:1"
       d="m 3.96875,22.754166 h 18.520833 l 0.264583,-0.264583 V 3.96875 l 0.264584,-0.2645834 0,19.0499994 -0.264584,0.264584 -18.785416,0 H 3.7041666 Z"
       id="path1790"
       inkscape:connector-curvature="0"
       sodipodi:nodetypes="cccccccccc" />
    <path
       style="fill:#40454d;fill-opacity:1;stroke:none;stroke-width:0.26458332px;stroke-linecap:butt;stroke-linejoin:miter;stroke-opacity:1"
       d="M 23.01875,3.7041666 22.754166,3.4395833 22.489583,3.7041666 22.754166,3.9687499 Z"
       id="path1792"
       inkscape:connector-curvature="0"
       sodipodi:nodetypes="ccccc" />
    <path
       inkscape:connector-curvature="0"
       id="path1794"
       d="M 3.4395833,22.754166 3.7041666,23.01875 3.9687499,22.754166 3.7041666,22.489583 Z"
       style="fill:#40454d;fill-opacity:1;stroke:none;stroke-width:0.26458332px;stroke-linecap:butt;stroke-linejoin:miter;stroke-opacity:1"
       sodipodi:nodetypes="ccccc" />
  </g>
  <g
     inkscape:groupmode="layer"
     id="layer4"
     inkscape:label="Layer 4">
    <circle
       style="opacity:1;fill:#00ff00;fill-opacity:1;stroke:url(#linearGradient1815);stroke-width:0.21166666;stroke-linecap:square;stroke-linejoin:bevel;stroke-miterlimit:4;stroke-dasharray:none;stroke-dashoffset:19;stroke-opacity:1;paint-order:markers stroke fill"
       id="path1797"
       cx="23.8125"
       cy="6.3499999"
       r="0.26458332" />
  </g>
  <g
     inkscape:label="Layer 1"
     inkscape:groupmode="layer"
     id="layer1"
     transform="translate(0,-270.54167)">
    <rect
       style="opacity:1;fill:#000000;fill-opacity:1;stroke:#000000;stroke-width:0.50270832;stroke-linecap:square;stroke-linejoin:bevel;stroke-miterlimit:4;stroke-dasharray:none;stroke-dashoffset:5.02708321;stroke-opacity:1;paint-order:markers stroke fill"
       id="rect1396"
       width="18.520834"
       height="18.520834"
       x="3.96875"
       y="274.51041"
       ry="1.345586e-005" />
  </g>
</svg>
