<?xml version="1.0" encoding="UTF-8" standalone="no"?>
<!-- Created with Inkscape (http://www.inkscape.org/) -->

<svg
   xmlns:dc="http://purl.org/dc/elements/1.1/"
   xmlns:cc="http://creativecommons.org/ns#"
   xmlns:rdf="http://www.w3.org/1999/02/22-rdf-syntax-ns#"
   xmlns:svg="http://www.w3.org/2000/svg"
   xmlns="http://www.w3.org/2000/svg"
   xmlns:xlink="http://www.w3.org/1999/xlink"
   xmlns:sodipodi="http://sodipodi.sourceforge.net/DTD/sodipodi-0.dtd"
   xmlns:inkscape="http://www.inkscape.org/namespaces/inkscape"
   width="100"
   height="100"
   viewBox="0 0 26.458333 26.458333"
   version="1.1"
   id="svg846"
   inkscape:version="0.92.3 (2405546, 2018-03-11)"
   sodipodi:docname="hbitface.svg">
  <defs
     id="defs840">
    <linearGradient
       inkscape:collect="always"
       id="linearGradient1813">
      <stop
         style="stop-color:#2e2a2b;stop-opacity:1"
         offset="0"
         id="stop1809" />
      <stop
         style="stop-color:#5c5b60;stop-opacity:1"
         offset="1"
         id="stop1811" />
    </linearGradient>
    <marker
       inkscape:stockid="DiamondL"
       orient="auto"
       refY="0.0"
       refX="0.0"
       id="DiamondL"
       style="overflow:visible"
       inkscape:isstock="true">
      <path
         id="path1477"
         d="M 0,-7.0710768 L -7.0710894,0 L 0,7.0710589 L 7.0710462,0 L 0,-7.0710768 z "
         style="fill-rule:evenodd;stroke:#000000;stroke-width:1.0pt"
         transform="scale(0.8)" />
    </marker>
    <marker
       inkscape:stockid="Club"
       orient="auto"
       refY="0.0"
       refX="0.0"
       id="Club"
       style="overflow:visible"
       inkscape:isstock="true">
      <path
         id="path1627"
         d="M -1.5971367,-7.0977635 C -3.4863874,-7.0977635 -5.0235187,-5.5606321 -5.0235187,-3.6713813 C -5.0235187,-3.0147015 -4.7851656,-2.4444556 -4.4641095,-1.9232271 C -4.5028609,-1.8911157 -4.5437814,-1.8647646 -4.5806531,-1.8299921 C -5.2030765,-2.6849849 -6.1700514,-3.2751330 -7.3077730,-3.2751330 C -9.1970245,-3.2751331 -10.734155,-1.7380016 -10.734155,0.15124914 C -10.734155,2.0404999 -9.1970245,3.5776313 -7.3077730,3.5776313 C -6.3143268,3.5776313 -5.4391540,3.1355702 -4.8137404,2.4588126 C -4.9384274,2.8137041 -5.0235187,3.1803000 -5.0235187,3.5776313 C -5.0235187,5.4668819 -3.4863874,7.0040135 -1.5971367,7.0040135 C 0.29211394,7.0040135 1.8292454,5.4668819 1.8292454,3.5776313 C 1.8292454,2.7842354 1.5136868,2.0838028 1.0600576,1.5031550 C 2.4152718,1.7663868 3.7718375,2.2973711 4.7661444,3.8340272 C 4.0279463,3.0958289 3.5540908,1.7534117 3.5540908,-0.058529361 L 2.9247554,-0.10514681 L 3.5074733,-0.12845553 C 3.5074733,-1.9403966 3.9580199,-3.2828138 4.6962183,-4.0210121 C 3.7371277,-2.5387813 2.4390549,-1.9946496 1.1299838,-1.7134486 C 1.5341802,-2.2753578 1.8292454,-2.9268556 1.8292454,-3.6713813 C 1.8292454,-5.5606319 0.29211394,-7.0977635 -1.5971367,-7.0977635 z "
         style="fill-rule:evenodd;stroke:#000000;stroke-width:0.74587913pt"
         transform="scale(0.6)" />
    </marker>
    <marker
       inkscape:stockid="DotL"
       orient="auto"
       refY="0.0"
       refX="0.0"
       id="marker1686"
       style="overflow:visible"
       inkscape:isstock="true">
      <path
         id="path1684"
         d="M -2.5,-1.0 C -2.5,1.7600000 -4.7400000,4.0 -7.5,4.0 C -10.260000,4.0 -12.5,1.7600000 -12.5,-1.0 C -12.5,-3.7600000 -10.260000,-6.0 -7.5,-6.0 C -4.7400000,-6.0 -2.5,-3.7600000 -2.5,-1.0 z "
         style="fill-rule:evenodd;stroke:#000000;stroke-width:1.0pt"
         transform="scale(0.8) translate(7.4, 1)" />
    </marker>
    <marker
       inkscape:stockid="DotL"
       orient="auto"
       refY="0.0"
       refX="0.0"
       id="marker1670"
       style="overflow:visible"
       inkscape:isstock="true">
      <path
         id="path1668"
         d="M -2.5,-1.0 C -2.5,1.7600000 -4.7400000,4.0 -7.5,4.0 C -10.260000,4.0 -12.5,1.7600000 -12.5,-1.0 C -12.5,-3.7600000 -10.260000,-6.0 -7.5,-6.0 C -4.7400000,-6.0 -2.5,-3.7600000 -2.5,-1.0 z "
         style="fill-rule:evenodd;stroke:#000000;stroke-width:1.0pt"
         transform="scale(0.8) translate(7.4, 1)" />
    </marker>
    <marker
       inkscape:stockid="DotL"
       orient="auto"
       refY="0.0"
       refX="0.0"
       id="DotL"
       style="overflow:visible"
       inkscape:isstock="true">
      <path
         id="path1459"
         d="M -2.5,-1.0 C -2.5,1.7600000 -4.7400000,4.0 -7.5,4.0 C -10.260000,4.0 -12.5,1.7600000 -12.5,-1.0 C -12.5,-3.7600000 -10.260000,-6.0 -7.5,-6.0 C -4.7400000,-6.0 -2.5,-3.7600000 -2.5,-1.0 z "
         style="fill-rule:evenodd;stroke:#000000;stroke-width:1.0pt"
         transform="scale(0.8) translate(7.4, 1)" />
    </marker>
    <linearGradient
       inkscape:collect="always"
       xlink:href="#linearGradient1813"
       id="linearGradient1815"
       x1="23.547916"
       y1="6.0854168"
       x2="24.077084"
       y2="6.614583"
       gradientUnits="userSpaceOnUse" />
    <linearGradient
       inkscape:collect="always"
       xlink:href="#linearGradient1813"
       id="linearGradient890"
       x1="25.929167"
       y1="4.2333331"
       x2="22.225"
       y2="0.52916664"
       gradientUnits="userSpaceOnUse" />
    <linearGradient
       inkscape:collect="always"
       xlink:href="#linearGradient1813"
       id="linearGradient928"
       x1="22.225"
       y1="2.7781255"
       x2="25.135418"
       y2="2.7781255"
       gradientUnits="userSpaceOnUse" />
    <linearGradient
       inkscape:collect="always"
       xlink:href="#linearGradient1813"
       id="linearGradient944"
       x1="1.3229166"
       y1="23.680208"
       x2="4.2333331"
       y2="23.680208"
       gradientUnits="userSpaceOnUse" />
    <linearGradient
       inkscape:collect="always"
       xlink:href="#linearGradient1813"
       id="linearGradient952"
       x1="22.489584"
       y1="3.4395833"
       x2="23.018749"
       y2="3.96875"
       gradientUnits="userSpaceOnUse" />
    <linearGradient
       inkscape:collect="always"
       xlink:href="#linearGradient1813"
       id="linearGradient960"
       gradientUnits="userSpaceOnUse"
       x1="4.2333331"
       y1="25.929167"
       x2="0.52916664"
       y2="22.225" />
    <linearGradient
       inkscape:collect="always"
       xlink:href="#linearGradient1813"
       id="linearGradient968"
       x1="3.175"
       y1="22.225"
       x2="4.2333331"
       y2="23.283333"
       gradientUnits="userSpaceOnUse" />
  </defs>
  <sodipodi:namedview
     id="base"
     pagecolor="#ffffff"
     bordercolor="#666666"
     borderopacity="1.0"
     inkscape:pageopacity="0.0"
     inkscape:pageshadow="2"
     inkscape:zoom="5.6568543"
     inkscape:cx="85.151161"
     inkscape:cy="25.262528"
     inkscape:document-units="px"
     inkscape:current-layer="layer2"
     showgrid="true"
     units="px"
     inkscape:pagecheckerboard="true"
     inkscape:window-width="2493"
     inkscape:window-height="1385"
     inkscape:window-x="67"
     inkscape:window-y="27"
     inkscape:window-maximized="1">
    <inkscape:grid
       type="xygrid"
       id="grid1394" />
  </sodipodi:namedview>
  <metadata
     id="metadata843">
    <rdf:RDF>
      <cc:Work
         rdf:about="">
        <dc:format>image/svg+xml</dc:format>
        <dc:type
           rdf:resource="http://purl.org/dc/dcmitype/StillImage" />
        <dc:title />
      </cc:Work>
    </rdf:RDF>
  </metadata>
  <g
     inkscape:groupmode="layer"
     id="layer2"
     inkscape:label="Layer 2">
    <path
       style="fill:#353538;stroke:none;stroke-width:0.26458332px;stroke-linecap:butt;stroke-linejoin:miter;stroke-opacity:1;fill-opacity:1"
       d="M 3.96875,25.135416 1.3229166,22.489583 V 3.96875 L 3.96875,1.3229166 H 22.489583 L 25.135416,3.96875 v 18.520833 l -2.645833,2.645833 z"
       id="path1765"
       inkscape:connector-curvature="0" />
    <text
       xml:space="preserve"
       style="font-style:normal;font-weight:normal;font-size:1.48808897px;line-height:1.25;font-family:sans-serif;text-align:center;letter-spacing:0px;word-spacing:0px;text-anchor:middle;fill:#918a91;fill-opacity:1;stroke:none;stroke-width:0.03720222"
       x="14.051608"
       y="24.536604"
       id="text972"><tspan
         sodipodi:role="line"
         id="tspan970"
         x="14.051608"
         y="25.853214"
         style="font-style:normal;font-variant:normal;font-weight:bold;font-stretch:normal;font-family:sans-serif;-inkscape-font-specification:'sans-serif Bold';text-align:center;baseline-shift:baseline;text-anchor:middle;fill:#918a91;fill-opacity:1;stroke-width:0.03720222" /></text>
    <g
       id="g917"
       transform="translate(0.35967004,0.04131494)">
      <g
         id="text846"
         style="font-style:normal;font-variant:normal;font-weight:normal;font-stretch:normal;font-size:89.1636734px;line-height:1.25;font-family:Dyuthi;-inkscape-font-specification:Dyuthi;letter-spacing:0px;word-spacing:0px;fill:#737271;fill-opacity:1;stroke:#00177d;stroke-width:0;stroke-miterlimit:4;stroke-dasharray:none;stroke-opacity:1"
         aria-label="POKiT3"
         transform="matrix(0.01229035,0,0,0.01229035,10.906233,21.963825)">
        <path
           id="path848"
           style="font-style:normal;font-variant:normal;font-weight:500;font-stretch:normal;font-family:'Boxfont Round';-inkscape-font-specification:'Boxfont Round Medium';fill:#737271;fill-opacity:1;stroke:#00177d;stroke-width:0;stroke-miterlimit:4;stroke-dasharray:none;stroke-opacity:1"
           d="m 24.1,125.78436 q 9.808004,0 39.232016,0 3.566547,0 7.133094,3.56654 3.566547,3.56655 3.566547,7.1331 0,7.13309 0,21.39928 0,3.56655 -3.566547,7.13309 -3.566547,3.56655 -7.133094,3.56655 -5.973966,0 -17.832734,0 0,-3.56655 0,-14.26619 3.566546,0 14.266187,0 0,-3.56654 0,-14.26619 -5.34982,0 -21.399281,0 0,14.26619 0,57.06476 -3.566547,0 -14.266188,0 0,-17.83274 0,-71.33094 z"
           inkscape:connector-curvature="0" />
        <path
           id="path850"
           style="font-style:normal;font-variant:normal;font-weight:500;font-stretch:normal;font-family:'Boxfont Round';-inkscape-font-specification:'Boxfont Round Medium';fill:#737271;fill-opacity:1;stroke:#00177d;stroke-width:0;stroke-miterlimit:4;stroke-dasharray:none;stroke-opacity:1"
           d="m 91.92012,197.1153 q -3.566547,0 -7.133094,-3.56655 -3.566546,-3.56655 -3.566546,-7.1331 0,-8.29222 0,-24.96582 0,-6.24146 0,-24.96583 0,-3.56655 3.566546,-7.1331 3.566547,-3.56654 7.133094,-3.56654 9.54051,0 28.53238,0 3.56654,0 7.13309,3.56654 3.56655,3.56655 3.56655,7.1331 0,16.6736 0,49.93165 0,3.56655 -3.56655,7.1331 -3.56655,3.56655 -7.13309,3.56655 -9.54052,0 -28.53238,0 z m 3.566547,-57.06476 q 0,10.69965 0,42.79857 5.349823,0 21.399283,0 0,-10.69964 0,-42.79857 -5.34982,0 -21.399283,0 z"
           inkscape:connector-curvature="0" />
        <path
           id="path852"
           style="font-style:normal;font-variant:normal;font-weight:500;font-stretch:normal;font-family:'Boxfont Round';-inkscape-font-specification:'Boxfont Round Medium';fill:#737271;fill-opacity:1;stroke:#00177d;stroke-width:0;stroke-miterlimit:4;stroke-dasharray:none;stroke-opacity:1"
           d="m 152.60715,125.78436 q 0,7.13309 0,28.53237 1.78327,0 7.13309,0 3.56655,-7.13309 14.26619,-28.53237 3.56655,0 14.26619,0 -4.45819,8.91636 -17.83274,35.66547 4.45819,8.91636 17.83274,35.66547 -3.56655,0 -14.26619,0 -3.56655,-7.1331 -14.26619,-28.53238 -1.78327,0 -7.13309,0 0,7.13309 0,28.53238 -3.56655,0 -14.26619,0 0,-17.83274 0,-71.33094 3.56655,0 14.26619,0 z"
           inkscape:connector-curvature="0" />
        <path
           id="path854"
           style="font-style:normal;font-variant:normal;font-weight:500;font-stretch:normal;font-family:'Boxfont Round';-inkscape-font-specification:'Boxfont Round Medium';fill:#737271;fill-opacity:1;stroke:#00177d;stroke-width:0;stroke-miterlimit:4;stroke-dasharray:none;stroke-opacity:1"
           d="m 209.72762,150.75019 q 0,11.59127 0,46.36511 -3.56654,0 -14.26619,0 0,-11.59128 0,-46.36511 3.56655,0 14.26619,0 z m -14.26619,-10.69965 q 0,-3.56654 0,-14.26618 3.56655,0 14.26619,0 0,3.56654 0,14.26618 -3.56654,0 -14.26619,0 z"
           inkscape:connector-curvature="0" />
        <path
           id="path856"
           style="font-style:normal;font-variant:normal;font-weight:500;font-stretch:normal;font-family:'Boxfont Round';-inkscape-font-specification:'Boxfont Round Medium';fill:#737271;fill-opacity:1;stroke:#00177d;stroke-width:0;stroke-miterlimit:4;stroke-dasharray:none;stroke-opacity:1"
           d="m 266.81327,125.78436 q 0,3.56654 0,14.26618 -4.45818,0 -17.83273,0 0,14.26619 0,57.06476 -3.56655,0 -14.26619,0 0,-14.26619 0,-57.06476 -4.45818,0 -17.83273,0 0,-3.56654 0,-14.26618 12.48291,0 49.93165,0 z"
           inkscape:connector-curvature="0" />
        <path
           id="path858"
           style="font-style:normal;font-variant:normal;font-weight:500;font-stretch:normal;font-size:57.95638657px;font-family:'Boxfont Round';-inkscape-font-specification:'Boxfont Round Medium';baseline-shift:super;fill:#737271;fill-opacity:1;stroke:#00177d;stroke-width:0;stroke-miterlimit:4;stroke-dasharray:none;stroke-opacity:1"
           d="m 272.75381,115.08472 q 6.3752,0 25.50081,0 2.31825,0 4.63651,2.31825 2.31825,2.31826 2.31825,4.63651 0,3.88308 0,11.59128 0,2.31826 -1.15912,3.47738 -1.15913,1.15913 -1.15913,1.15913 0,0 1.15913,1.15913 1.15912,1.15913 1.15912,3.47738 0,3.88308 0,11.59128 0,2.31825 -2.31825,4.63651 -2.31826,2.31826 -4.63651,2.31826 -8.51959,0 -25.50081,0 0,-2.31826 0,-9.27303 5.79564,0 23.18255,0 0,-2.31825 0,-9.27302 -3.47738,0 -13.90953,0 0,-2.31825 0,-9.27302 3.47738,0 13.90953,0 0,-2.31826 0,-9.27302 -5.79564,0 -23.18255,0 0,-2.31826 0,-9.27302 z"
           inkscape:connector-curvature="0" />
      </g>
      <path
         inkscape:connector-curvature="0"
         id="path864"
         d="m 11.213492,23.438667 h 2.888231 l 0.122904,-0.122904 h -2.888232 z"
         style="fill:#737271;fill-opacity:1;stroke:none;stroke-width:0.01229035px;stroke-linecap:butt;stroke-linejoin:miter;stroke-opacity:1" />
      <path
         sodipodi:nodetypes="ccccc"
         inkscape:connector-curvature="0"
         id="path868"
         d="m 11.213492,24.483346 0.122903,0.122904 h 3.318394 l -0.122904,-0.122904 z"
         style="fill:#737271;fill-opacity:1;stroke:none;stroke-width:0.01229035px;stroke-linecap:butt;stroke-linejoin:miter;stroke-opacity:1" />
    </g>
  </g>
  <g
     inkscape:groupmode="layer"
     id="layer3"
     inkscape:label="Layer 3">
    <path
       style="fill:#5c5b60;fill-opacity:1;stroke:none;stroke-width:0.26458332px;stroke-linecap:butt;stroke-linejoin:miter;stroke-opacity:1"
       d="M 1.3229166,22.489583 V 3.96875 L 3.96875,1.3229166 H 22.489583 L 23.01875,0.79374999 H 3.4395833 L 0.79374999,3.4395833 V 23.01875 L 1.0583333,22.754166 Z"
       id="path1768"
       inkscape:connector-curvature="0"
       sodipodi:nodetypes="cccccccccc" />
    <path
       style="fill:#2e2a2b;fill-opacity:1;stroke:none;stroke-width:0.26458332px;stroke-linecap:butt;stroke-linejoin:miter;stroke-opacity:1"
       d="m 1.5875,22.225 0,-17.9916667 L 4.2333333,1.5875 H 22.489583 V 1.3229166 H 3.96875 L 1.3229166,3.96875 v 18.520833 z"
       id="path1772"
       inkscape:connector-curvature="0"
       sodipodi:nodetypes="ccccccccc" />
    <path
       style="fill:url(#linearGradient960);fill-opacity:1;stroke:none;stroke-width:0.26458332px;stroke-linecap:butt;stroke-linejoin:miter;stroke-opacity:1"
       d="M 0.79374999,23.01875 3.4395833,25.664583 3.96875,25.135416 1.3229166,22.489583 Z"
       id="path1774"
       inkscape:connector-curvature="0"
       sodipodi:nodetypes="ccccc" />
    <path
       style="fill:url(#linearGradient944);fill-opacity:1.0;stroke:none;stroke-width:0.26458332px;stroke-linecap:butt;stroke-linejoin:miter;stroke-opacity:1"
       d="M 1.3229166,22.489583 1.5875,22.225 4.2333333,24.870833 3.96875,25.135416 Z"
       id="path1776"
       inkscape:connector-curvature="0"
       sodipodi:nodetypes="ccccc" />
    <path
       style="fill:#5c5b60;stroke:none;stroke-width:0.26458332px;stroke-linecap:butt;stroke-linejoin:miter;stroke-opacity:1;fill-opacity:1"
       d="M 3.96875,25.135416 4.2333333,24.870833 H 22.225 L 24.870833,22.225 V 4.2333333 L 25.135416,3.96875 v 18.520833 l -2.645833,2.645833 z"
       id="path1778"
       inkscape:connector-curvature="0" />
    <path
       style="fill:#2e2a2b;fill-opacity:1;stroke:none;stroke-width:0.26458332px;stroke-linecap:butt;stroke-linejoin:miter;stroke-opacity:1"
       d="M 3.4395833,25.664583 H 23.01875 l 2.645833,-2.645833 0,-19.5791667 -0.529167,0.5291667 v 18.520833 l -2.645833,2.645833 H 3.96875 Z"
       id="path1780"
       inkscape:connector-curvature="0"
       sodipodi:nodetypes="ccccccccc" />
    <path
       inkscape:connector-curvature="0"
       id="path1782"
       d="M 25.664583,3.4395833 23.01875,0.79374999 22.489584,1.3229174 25.135417,3.9687509 Z"
       style="fill:url(#linearGradient890);fill-opacity:1;stroke:none;stroke-width:0.26458332px;stroke-linecap:butt;stroke-linejoin:miter;stroke-opacity:1"
       sodipodi:nodetypes="ccccc" />
    <path
       sodipodi:nodetypes="ccccc"
       inkscape:connector-curvature="0"
       id="path1784"
       d="M 25.135417,3.9687509 24.870834,4.2333339 22.225,1.5875002 22.489584,1.3229174 Z"
       style="fill:url(#linearGradient928);fill-opacity:1.0;stroke:none;stroke-width:0.26458332px;stroke-linecap:butt;stroke-linejoin:miter;stroke-opacity:1" />
    <path
       style="fill:#2e2a2b;fill-opacity:1;stroke:none;stroke-width:0.26458332px;stroke-linecap:butt;stroke-linejoin:miter;stroke-opacity:1"
       d="M 3.7041666,22.489583 V 3.96875 L 3.96875,3.7041666 h 18.520833 l 0.264583,-0.2645833 -19.0499994,0 -0.2645833,0.2645833 0,19.0499994 z"
       id="path1788"
       inkscape:connector-curvature="0"
       sodipodi:nodetypes="ccccccccc" />
    <path
       style="fill:#5c5b60;fill-opacity:1;stroke:none;stroke-width:0.26458332px;stroke-linecap:butt;stroke-linejoin:miter;stroke-opacity:1"
       d="m 3.96875,22.754166 h 18.520833 l 0.264583,-0.264583 V 3.96875 l 0.264584,-0.2645834 0,19.0499994 -0.264584,0.264584 -18.785416,0 H 3.7041666 Z"
       id="path1790"
       inkscape:connector-curvature="0"
       sodipodi:nodetypes="cccccccccc" />
    <path
       style="fill:url(#linearGradient952);fill-opacity:1;stroke:none;stroke-width:0.26458332px;stroke-linecap:butt;stroke-linejoin:miter;stroke-opacity:1"
       d="M 23.01875,3.7041666 22.754166,3.4395833 22.489583,3.7041666 22.754166,3.9687499 Z"
       id="path1792"
       inkscape:connector-curvature="0"
       sodipodi:nodetypes="ccccc" />
    <path
       inkscape:connector-curvature="0"
       id="path1794"
       d="M 3.4395833,22.754166 3.7041666,23.01875 3.9687499,22.754166 3.7041666,22.489583 Z"
       style="fill:url(#linearGradient968);fill-opacity:1;stroke:none;stroke-width:0.26458332px;stroke-linecap:butt;stroke-linejoin:miter;stroke-opacity:1"
       sodipodi:nodetypes="ccccc" />
  </g>
  <g
     inkscape:groupmode="layer"
     id="layer4"
     inkscape:label="Layer 4">
    <circle
       style="opacity:1;fill:#00ff00;fill-opacity:1;stroke:url(#linearGradient1815);stroke-width:0.21166666;stroke-linecap:square;stroke-linejoin:bevel;stroke-miterlimit:4;stroke-dasharray:none;stroke-dashoffset:19;stroke-opacity:1;paint-order:markers stroke fill"
       id="path1797"
       cx="23.8125"
       cy="6.3499999"
       r="0.26458332" />
  </g>
  <g
     inkscape:label="Layer 1"
     inkscape:groupmode="layer"
     id="layer1"
     transform="translate(0,-270.54167)">
    <rect
       style="opacity:1;fill:#000000;fill-opacity:1;stroke:#000000;stroke-width:0.50270832;stroke-linecap:square;stroke-linejoin:bevel;stroke-miterlimit:4;stroke-dasharray:none;stroke-dashoffset:5.02708321;stroke-opacity:1;paint-order:markers stroke fill"
       id="rect1396"
       width="18.520834"
       height="18.520834"
       x="3.96875"
       y="274.51041"
       ry="1.345586e-005" />
  </g>
</svg>
