<?xml version="1.0" encoding="UTF-8" standalone="no"?>
<!-- Created with Inkscape (http://www.inkscape.org/) -->

<svg
   xmlns:dc="http://purl.org/dc/elements/1.1/"
   xmlns:cc="http://creativecommons.org/ns#"
   xmlns:rdf="http://www.w3.org/1999/02/22-rdf-syntax-ns#"
   xmlns:svg="http://www.w3.org/2000/svg"
   xmlns="http://www.w3.org/2000/svg"
   xmlns:sodipodi="http://sodipodi.sourceforge.net/DTD/sodipodi-0.dtd"
   xmlns:inkscape="http://www.inkscape.org/namespaces/inkscape"
   width="320px"
   height="320px"
   viewBox="0 0 320 320"
   version="1.1"
   id="SVGRoot"
   inkscape:version="0.92.3 (2405546, 2018-03-11)"
   sodipodi:docname="bootscreen.svg">
  <sodipodi:namedview
     id="base"
     pagecolor="#ffffff"
     bordercolor="#666666"
     borderopacity="1.0"
     inkscape:pageopacity="0.0"
     inkscape:pageshadow="2"
     inkscape:zoom="2.8284271"
     inkscape:cx="155.22853"
     inkscape:cy="157.40108"
     inkscape:document-units="px"
     inkscape:current-layer="layer3"
     showgrid="true"
     inkscape:window-width="2493"
     inkscape:window-height="1385"
     inkscape:window-x="67"
     inkscape:window-y="27"
     inkscape:window-maximized="1"
     inkscape:pagecheckerboard="true">
    <inkscape:grid
       type="xygrid"
       id="grid1571"
       dotted="false" />
  </sodipodi:namedview>
  <defs
     id="defs1012">
    <inkscape:perspective
       sodipodi:type="inkscape:persp3d"
       inkscape:vp_x="-337.01678 : 30 : 1"
       inkscape:vp_y="0 : 1000 : 0"
       inkscape:vp_z="526.70776 : 55 : 1"
       inkscape:persp3d-origin="171.95431 : 106.66667 : 1"
       id="perspective1588" />
    <filter
       inkscape:label="Pixellize"
       inkscape:menu="Pixel Tools"
       inkscape:menu-tooltip="Reduce or remove antialiasing around shapes"
       style="color-interpolation-filters:sRGB;"
       id="filter1577">
      <feColorMatrix
         values="1 0 0 0 0 0 1 0 0 0 0 0 1 0 0 0 0 0 1000 -500 "
         id="feColorMatrix1575" />
    </filter>
    <filter
       inkscape:label="Pixellize"
       inkscape:menu="Pixel Tools"
       inkscape:menu-tooltip="Reduce or remove antialiasing around shapes"
       style="color-interpolation-filters:sRGB;"
       id="filter1586">
      <feColorMatrix
         values="1 0 0 0 0 0 1 0 0 0 0 0 1 0 0 0 0 0 1000 -500 "
         id="feColorMatrix1584"
         type="saturate" />
    </filter>
  </defs>
  <metadata
     id="metadata1015">
    <rdf:RDF>
      <cc:Work
         rdf:about="">
        <dc:format>image/svg+xml</dc:format>
        <dc:type
           rdf:resource="http://purl.org/dc/dcmitype/StillImage" />
        <dc:title />
      </cc:Work>
    </rdf:RDF>
  </metadata>
  <g
     inkscape:groupmode="layer"
     id="layer2"
     inkscape:label="Layer 2"
     style="display:inline" />
  <g
     id="layer1"
     inkscape:groupmode="layer"
     inkscape:label="Layer 1">
    <text
       xml:space="preserve"
       style="font-style:normal;font-variant:normal;font-weight:normal;font-stretch:normal;font-size:40px;line-height:1.25;font-family:Dyuthi;-inkscape-font-specification:Dyuthi;letter-spacing:0px;word-spacing:0px;fill:#000000;fill-opacity:1;stroke:none"
       x="-264"
       y="123"
       id="text1634"><tspan
         sodipodi:role="line"
         id="tspan1632"
         x="-264"
         y="123"
         style="-inkscape-font-specification:'Boxfont Round';font-family:'Boxfont Round';font-weight:normal;font-style:normal;font-stretch:normal;font-variant:normal">POKiT<tspan
   style="font-size:64.99999762%;baseline-shift:super;-inkscape-font-specification:'Boxfont Round';font-family:'Boxfont Round';font-weight:normal;font-style:normal;font-stretch:normal;font-variant:normal"
   id="tspan840">3</tspan></tspan></text>
    <g
       aria-label="POKiT3"
       style="font-style:normal;font-variant:normal;font-weight:normal;font-stretch:normal;font-size:89.1636734px;line-height:1.25;font-family:Dyuthi;-inkscape-font-specification:Dyuthi;letter-spacing:0px;word-spacing:0px;fill:#000000;fill-opacity:1;stroke:#00177d;stroke-width:0;stroke-miterlimit:4;stroke-dasharray:none;stroke-opacity:1"
       id="text846">
      <path
         d="m 24.1,125.78436 q 9.808004,0 39.232016,0 3.566547,0 7.133094,3.56654 3.566547,3.56655 3.566547,7.1331 0,7.13309 0,21.39928 0,3.56655 -3.566547,7.13309 -3.566547,3.56655 -7.133094,3.56655 -5.973966,0 -17.832734,0 0,-3.56655 0,-14.26619 3.566546,0 14.266187,0 0,-3.56654 0,-14.26619 -5.34982,0 -21.399281,0 0,14.26619 0,57.06476 -3.566547,0 -14.266188,0 0,-17.83274 0,-71.33094 z"
         style="font-style:normal;font-variant:normal;font-weight:500;font-stretch:normal;font-family:'Boxfont Round';-inkscape-font-specification:'Boxfont Round Medium';stroke-width:0;fill:#000000;stroke-miterlimit:4;stroke-dasharray:none;stroke:#00177d;stroke-opacity:1"
         id="path848" />
      <path
         d="m 91.92012,197.1153 q -3.566547,0 -7.133094,-3.56655 -3.566546,-3.56655 -3.566546,-7.1331 0,-8.29222 0,-24.96582 0,-6.24146 0,-24.96583 0,-3.56655 3.566546,-7.1331 3.566547,-3.56654 7.133094,-3.56654 9.54051,0 28.53238,0 3.56654,0 7.13309,3.56654 3.56655,3.56655 3.56655,7.1331 0,16.6736 0,49.93165 0,3.56655 -3.56655,7.1331 -3.56655,3.56655 -7.13309,3.56655 -9.54052,0 -28.53238,0 z m 3.566547,-57.06476 q 0,10.69965 0,42.79857 5.349823,0 21.399283,0 0,-10.69964 0,-42.79857 -5.34982,0 -21.399283,0 z"
         style="font-style:normal;font-variant:normal;font-weight:500;font-stretch:normal;font-family:'Boxfont Round';-inkscape-font-specification:'Boxfont Round Medium';stroke-width:0;fill:#000000;stroke-miterlimit:4;stroke-dasharray:none;stroke:#00177d;stroke-opacity:1"
         id="path850" />
      <path
         d="m 152.60715,125.78436 q 0,7.13309 0,28.53237 1.78327,0 7.13309,0 3.56655,-7.13309 14.26619,-28.53237 3.56655,0 14.26619,0 -4.45819,8.91636 -17.83274,35.66547 4.45819,8.91636 17.83274,35.66547 -3.56655,0 -14.26619,0 -3.56655,-7.1331 -14.26619,-28.53238 -1.78327,0 -7.13309,0 0,7.13309 0,28.53238 -3.56655,0 -14.26619,0 0,-17.83274 0,-71.33094 3.56655,0 14.26619,0 z"
         style="font-style:normal;font-variant:normal;font-weight:500;font-stretch:normal;font-family:'Boxfont Round';-inkscape-font-specification:'Boxfont Round Medium';stroke-width:0;fill:#000000;stroke-miterlimit:4;stroke-dasharray:none;stroke:#00177d;stroke-opacity:1"
         id="path852" />
      <path
         d="m 209.72762,150.75019 q 0,11.59127 0,46.36511 -3.56654,0 -14.26619,0 0,-11.59128 0,-46.36511 3.56655,0 14.26619,0 z m -14.26619,-10.69965 q 0,-3.56654 0,-14.26618 3.56655,0 14.26619,0 0,3.56654 0,14.26618 -3.56654,0 -14.26619,0 z"
         style="font-style:normal;font-variant:normal;font-weight:500;font-stretch:normal;font-family:'Boxfont Round';-inkscape-font-specification:'Boxfont Round Medium';stroke-width:0;fill:#000000;stroke-miterlimit:4;stroke-dasharray:none;stroke:#00177d;stroke-opacity:1"
         id="path854" />
      <path
         d="m 266.81327,125.78436 q 0,3.56654 0,14.26618 -4.45818,0 -17.83273,0 0,14.26619 0,57.06476 -3.56655,0 -14.26619,0 0,-14.26619 0,-57.06476 -4.45818,0 -17.83273,0 0,-3.56654 0,-14.26618 12.48291,0 49.93165,0 z"
         style="font-style:normal;font-variant:normal;font-weight:500;font-stretch:normal;font-family:'Boxfont Round';-inkscape-font-specification:'Boxfont Round Medium';stroke-width:0;fill:#000000;stroke-miterlimit:4;stroke-dasharray:none;stroke:#00177d;stroke-opacity:1"
         id="path856" />
      <path
         d="m 272.75381,115.08472 q 6.3752,0 25.50081,0 2.31825,0 4.63651,2.31825 2.31825,2.31826 2.31825,4.63651 0,3.88308 0,11.59128 0,2.31826 -1.15912,3.47738 -1.15913,1.15913 -1.15913,1.15913 0,0 1.15913,1.15913 1.15912,1.15913 1.15912,3.47738 0,3.88308 0,11.59128 0,2.31825 -2.31825,4.63651 -2.31826,2.31826 -4.63651,2.31826 -8.51959,0 -25.50081,0 0,-2.31826 0,-9.27303 5.79564,0 23.18255,0 0,-2.31825 0,-9.27302 -3.47738,0 -13.90953,0 0,-2.31825 0,-9.27302 3.47738,0 13.90953,0 0,-2.31826 0,-9.27302 -5.79564,0 -23.18255,0 0,-2.31826 0,-9.27302 z"
         style="font-style:normal;font-variant:normal;font-weight:500;font-stretch:normal;font-size:57.95638657px;font-family:'Boxfont Round';-inkscape-font-specification:'Boxfont Round Medium';baseline-shift:super;stroke-width:0;fill:#000000;stroke-miterlimit:4;stroke-dasharray:none;stroke:#00177d;stroke-opacity:1"
         id="path858" />
    </g>
  </g>
  <g
     inkscape:groupmode="layer"
     id="layer3"
     inkscape:label="Layer 3">
    <path
       style="fill:#000000;stroke:none;stroke-width:1px;stroke-linecap:butt;stroke-linejoin:miter;stroke-opacity:1"
       d="m 25,120 h 235 l 10,-10 H 35 Z"
       id="path864"
       inkscape:connector-curvature="0" />
    <path
       style="fill:#000000;stroke:none;stroke-width:1px;stroke-linecap:butt;stroke-linejoin:miter;stroke-opacity:1"
       d="m 25,205 10,10 h 270 l -10,-10 z"
       id="path868"
       inkscape:connector-curvature="0"
       sodipodi:nodetypes="ccccc" />
  </g>
</svg>
