<svg xmlns="http://www.w3.org/2000/svg" xmlns:xlink="http://www.w3.org/1999/xlink" width="100" height="100" viewBox="0 0 26.46 26.46"><defs><linearGradient id="a"><stop offset="0" stop-color="#2e2a2b"/><stop offset="1" stop-color="#5c5b60"/></linearGradient><linearGradient id="h" x1="23.55" x2="24.08" y1="6.09" y2="6.61" gradientUnits="userSpaceOnUse" xlink:href="#a"/><linearGradient id="d" x1="25.93" x2="22.23" y1="4.23" y2=".53" gradientUnits="userSpaceOnUse" xlink:href="#a"/><linearGradient id="e" x1="22.23" x2="25.14" y1="2.78" y2="2.78" gradientUnits="userSpaceOnUse" xlink:href="#a"/><linearGradient id="c" x1="1.32" x2="4.23" y1="23.68" y2="23.68" gradientUnits="userSpaceOnUse" xlink:href="#a"/><linearGradient id="f" x1="22.49" x2="23.02" y1="3.44" y2="3.97" gradientUnits="userSpaceOnUse" xlink:href="#a"/><linearGradient id="b" x1="4.23" x2=".53" y1="25.93" y2="22.23" gradientUnits="userSpaceOnUse" xlink:href="#a"/><linearGradient id="g" x1="3.17" x2="4.23" y1="22.23" y2="23.28" gradientUnits="userSpaceOnUse" xlink:href="#a"/></defs><path fill="#353538" d="M3.97 25.14l-2.65-2.65V3.97l2.65-2.65h18.52l2.65 2.65v18.52l-2.65 2.65z"/><text x="11.87" y="24.54" fill="#918a91" stroke-width=".04" font-family="sans-serif" font-size="1.49" font-weight="400" letter-spacing="0" style="line-height:1.25" word-spacing="0"><tspan x="11.87" y="24.54" font-weight="700" style="-inkscape-font-specification:'sans-serif Bold'">GB<tspan baseline-shift="super" font-size="65%" style="-inkscape-font-specification:'sans-serif Bold'">3</tspan></tspan></text><path fill="#5c5b60" d="M1.32 22.49V3.97l2.65-2.65h18.52l.53-.53H3.44L.79 3.44v19.58l.27-.27z"/><path fill="#2e2a2b" d="M1.59 22.23v-18L4.23 1.6H22.5v-.27H3.97L1.32 3.97v18.52z"/><path fill="url(#b)" d="M.8 23.02l2.64 2.64.53-.52-2.65-2.65z"/><path fill="url(#c)" d="M1.32 22.49l.27-.26 2.64 2.64-.26.27z"/><path fill="#5c5b60" d="M3.97 25.14l.26-.27h18l2.64-2.64v-18l.27-.26v18.52l-2.65 2.65z"/><path fill="#2e2a2b" d="M3.44 25.66h19.58l2.64-2.64V3.44l-.52.53v18.52l-2.65 2.65H3.97z"/><path fill="url(#d)" d="M25.66 3.44L23.02.79l-.53.53 2.65 2.65z"/><path fill="url(#e)" d="M25.14 3.97l-.27.26-2.64-2.64.26-.27z"/><path fill="#2e2a2b" d="M3.7 22.49V3.97l.27-.27h18.52l.26-.26H3.7l-.26.26v19.05z"/><path fill="#5c5b60" d="M3.97 22.75h18.52l.26-.26V3.97l.27-.27v19.05l-.27.27H3.7z"/><path fill="url(#f)" d="M23.02 3.7l-.27-.26-.26.26.26.27z"/><path fill="url(#g)" d="M3.44 22.75l.26.27.27-.27-.27-.26z"/><g><circle cx="23.81" cy="6.35" r=".26" fill="#0f0" stroke="url(#h)" stroke-dashoffset="19" stroke-linecap="square" stroke-linejoin="bevel" stroke-width=".21" paint-order="markers stroke fill"/></g><g transform="translate(0 -270.54)"><rect width="18.52" height="18.52" x="3.97" y="274.51" stroke="#000" stroke-dashoffset="5.03" stroke-linecap="square" stroke-linejoin="bevel" stroke-width=".5" paint-order="markers stroke fill" ry="0"/></g></svg>