<svg xmlns="http://www.w3.org/2000/svg" xmlns:xlink="http://www.w3.org/1999/xlink" viewBox="0 0 26.46 26.46">
  <defs>
    <linearGradient id="a">
      <stop offset="0" stop-color="#2e2a2b"/>
      <stop offset="1" stop-color="#5c5b60"/>
    </linearGradient>
    <linearGradient xlink:href="#a" id="b" x1="23.55" y1="6.09" x2="24.08" y2="6.61" gradientUnits="userSpaceOnUse"/>
  </defs>
  <path d="M3.97 25.14l-2.65-2.65V3.97l2.65-2.65h18.52l2.65 2.65v18.52l-2.65 2.65z" fill="#353538"/>
  <g aria-label="CUBEette" style="line-height:1.25;text-align:center" font-size="1.42" font-family="Eras Bold ITC" letter-spacing="0" word-spacing="0" text-anchor="middle" fill="#918a91" stroke-width=".07">
    <path d="M10.66 24.22l-.02.11-.02.12-.26.02q-.11 0-.21-.03-.1-.03-.18-.1-.08-.06-.11-.14-.04-.09-.04-.2 0-.12.05-.22t.13-.17q.1-.07.2-.1t.21-.03q.1 0 .26.03V23.73l-.13-.02-.09-.01q-.1 0-.17.04-.07.03-.11.1-.05.08-.05.16t.04.14q.03.06.1.09.06.03.15.03l.1-.01q.06 0 .15-.03zM10.83 23.5H11.13l-.02.3v.35q0 .03.03.05.02.03.05.04l.08.01h.06l.04-.02.03-.03.02-.04.02-.06.02-.17.01-.21v-.22H11.79l-.03.5v.02q0 .14-.02.2-.01.06-.05.1-.03.05-.1.08-.07.04-.15.05l-.17.02-.15-.01-.12-.03-.1-.05-.05-.06-.03-.06-.01-.1v-.05-.1l.01-.1.01-.13zM11.9 24.45l.02-.24.01-.33v-.3-.08h.63l.08.03q.04.01.06.04.03.02.05.06l.01.1v.07l-.04.07-.04.04-.04.03-.06.02.06.02.05.02.04.05.03.06.01.07q0 .06-.02.1-.01.05-.04.08l-.07.05-.09.03h-.13l-.2.01h-.19zm.3-.58h.22l.03-.03.02-.03v-.04-.04l-.05-.03-.08-.01h-.12zm0 .39h.2l.05-.03q.02 0 .03-.03v-.05-.04l-.03-.03-.03-.01-.07-.01h-.15zM12.9 24.45l.03-.3.01-.32.01-.27v-.06h.78v.09l-.01.07v.05h-.47l-.01.16h.39v.2h-.2l-.2.01-.01.17h.37l.1-.01-.01.21H13zM14.52 24.24l-.03.2-.14.02h-.26q-.07-.01-.12-.04-.05-.03-.09-.08l-.05-.1-.02-.12q0-.1.04-.18.04-.08.1-.13.05-.05.12-.07.07-.02.15-.02.08 0 .15.02.07.02.12.07.05.04.07.1l.02.12v.1h-.5v.01q0 .08.06.11.06.04.13.04l.1-.01.15-.04zm-.43-.22h.23V24v-.07l-.05-.03q-.02-.02-.05-.02l-.04.01q-.02 0-.03.02l-.03.03-.02.03v.05zM15.2 24.25l-.03.11-.01.08-.11.02h-.18q-.05-.01-.08-.04l-.04-.06-.01-.07v-.03-.08l.02-.24h-.1v-.19h.12v-.14l.12-.02.14-.03v.2h.15v.18h-.16v.18l-.01.05v.05l.03.03.04.01h.04l.06-.01zM15.8 24.25q-.02.05-.02.11l-.02.08-.1.02h-.18q-.05-.01-.08-.04l-.04-.06q-.02-.03-.02-.07v-.03l.01-.08.02-.24h-.11v-.19h.12l.01-.14.12-.02.14-.03v.2h.15v.18h-.17V24.22l.03.03.04.01h.03l.07-.01zM16.57 24.24l-.03.2-.14.02h-.26q-.07-.01-.12-.04-.05-.03-.08-.08-.04-.04-.06-.1l-.01-.12q0-.1.03-.18.04-.08.1-.13.05-.05.12-.07.07-.02.15-.02.08 0 .15.02.07.02.12.07.05.04.07.1.03.06.03.12l-.01.1h-.49v.01q0 .08.05.11.06.04.13.04l.1-.01.15-.04zm-.42-.22h.23V24q0-.04-.02-.07l-.03-.03-.06-.02-.04.01q-.02 0-.03.02l-.03.03-.01.03-.01.05z" style="-inkscape-font-specification:'Eras Bold ITC'"/>
  </g>
  <path d="M1.32 22.49V3.97l2.65-2.65h18.52l.53-.53H3.44L.79 3.44v19.58l.27-.27z" fill="#5c5b60"/>
  <path d="M1.59 22.23v-18L4.23 1.6H22.5v-.27H3.97L1.32 3.97v18.52z" fill="#2e2a2b"/>
  <path d="M.8 23.02l2.64 2.64.53-.52-2.65-2.65z" fill="#45494d"/>
  <path d="M1.32 22.49l.27-.26 2.64 2.64-.26.27z" fill="#403c41"/>
  <path d="M3.97 25.14l.26-.27h18l2.64-2.64v-18l.27-.26v18.52l-2.65 2.65z" fill="#5c5b60"/>
  <path d="M3.44 25.66h19.58l2.64-2.64V3.44l-.52.53v18.52l-2.65 2.65H3.97z" fill="#2e2a2b"/>
  <path d="M25.66 3.44L23.02.79l-.53.53 2.65 2.65z" fill="#494a4c"/>
  <path d="M25.14 3.97l-.27.26-2.64-2.64.26-.27z" fill="#403f41"/>
  <path d="M3.7 22.49V3.97l.27-.27h18.52l.26-.26H3.7l-.26.26v19.05z" fill="#2e2a2b"/>
  <path d="M3.97 22.75h18.52l.26-.26V3.97l.27-.27v19.05l-.27.27H3.7z" fill="#5c5b60"/>
  <path d="M23.02 3.7l-.27-.26-.26.26.26.27zM3.44 22.75l.26.27.27-.27-.27-.26z" fill="#40454d"/>
  <g>
    <circle cx="23.81" cy="6.35" r=".26" fill="#0f0" stroke="url(#b)" stroke-width=".21" stroke-linecap="square" stroke-linejoin="bevel" stroke-dashoffset="19" paint-order="markers stroke fill"/>
  </g>
  <g transform="translate(0 -270.54)">
    <rect width="18.52" height="18.52" x="3.97" y="274.51" ry="0" stroke="#000" stroke-width=".5" stroke-linecap="square" stroke-linejoin="bevel" stroke-dashoffset="5.03" paint-order="markers stroke fill"/>
  </g>
</svg>
