<?xml version="1.0" encoding="UTF-8" standalone="no"?>
<!-- Created with Inkscape (http://www.inkscape.org/) -->

<svg
   xmlns:dc="http://purl.org/dc/elements/1.1/"
   xmlns:cc="http://creativecommons.org/ns#"
   xmlns:rdf="http://www.w3.org/1999/02/22-rdf-syntax-ns#"
   xmlns:svg="http://www.w3.org/2000/svg"
   xmlns="http://www.w3.org/2000/svg"
   xmlns:sodipodi="http://sodipodi.sourceforge.net/DTD/sodipodi-0.dtd"
   xmlns:inkscape="http://www.inkscape.org/namespaces/inkscape"
   width="100"
   height="100"
   viewBox="0 0 26.458333 26.458334"
   version="1.1"
   id="svg8"
   sodipodi:docname="land_screen_raw.svg"
   inkscape:version="0.92.3 (2405546, 2018-03-11)">
  <defs
     id="defs2" />
  <sodipodi:namedview
     id="base"
     pagecolor="#ffffff"
     bordercolor="#666666"
     borderopacity="1.0"
     inkscape:pageopacity="0.0"
     inkscape:pageshadow="2"
     inkscape:zoom="11.2"
     inkscape:cx="46.930123"
     inkscape:cy="41.432764"
     inkscape:document-units="mm"
     inkscape:current-layer="layer5"
     showgrid="true"
     units="px"
     inkscape:pagecheckerboard="true"
     inkscape:window-width="908"
     inkscape:window-height="1084"
     inkscape:window-x="675"
     inkscape:window-y="184"
     inkscape:window-maximized="0"
     inkscape:snap-grids="false">
    <inkscape:grid
       type="xygrid"
       id="grid10" />
  </sodipodi:namedview>
  <metadata
     id="metadata5">
    <rdf:RDF>
      <cc:Work
         rdf:about="">
        <dc:format>image/svg+xml</dc:format>
        <dc:type
           rdf:resource="http://purl.org/dc/dcmitype/StillImage" />
        <dc:title />
      </cc:Work>
    </rdf:RDF>
  </metadata>
  <g
     inkscape:groupmode="layer"
     id="layer2"
     inkscape:label="Layer 2"
     style="display:inline">
    <path
       style="fill:#eae7d9;fill-opacity:1;stroke:#eae7d9;stroke-width:0.26458332px;stroke-linecap:butt;stroke-linejoin:miter;stroke-opacity:1"
       d="M 2.6458333,3.96875 C 2.0998949,2.3958825 2.8874863,2.3524504 3.96875,2.6458333 c 6.195113,-0.7098106 12.368466,-0.7012899 18.520834,0 1.44336,-0.5000668 1.694963,0.1186843 1.322916,1.3229167 0.778524,6.686759 1.90032,13.446916 1.322916,19.84375 -0.02046,0.686407 -0.357858,1.144012 -1.322916,1.322916 -7.101508,0.713442 -14.1560458,0.697635 -21.1666667,0 C 1.4300276,25.3532 1.1540363,24.817573 1.3229166,23.8125 0.7448167,17.465611 1.8619372,10.673414 2.6458333,3.96875 Z"
       id="path820"
       inkscape:connector-curvature="0"
       sodipodi:nodetypes="ccccccccc" />
    <path
       style="fill:#eae7d9;fill-opacity:1;stroke:#000000;stroke-width:0.26458332px;stroke-linecap:butt;stroke-linejoin:miter;stroke-opacity:1"
       d="M -7.4083332,7.9374999 -7.6729166,12.7 -3.96875,10.583333 -5.5562499,7.4083332 Z"
       id="path4531"
       inkscape:connector-curvature="0" />
  </g>
  <g
     inkscape:groupmode="layer"
     id="layer5"
     inkscape:label="Layer 5"
     style="display:inline">
    <path
       style="fill:#cecac2;fill-opacity:1;stroke:none;stroke-width:0.26458332px;stroke-linecap:butt;stroke-linejoin:miter;stroke-opacity:1"
       d="M 2.38125,5.0270837 2.6458333,3.96875 4.2333333,4.2333333 4.7625,5.0270833 4.5333519,22.482496 2.8513579,23.642411 C 1.8459601,23.148633 1.342813,23.515437 1.3229167,23.8125 L 1.0583333,19.84375 1.3229167,15.610417 C 1.8520833,10.583333 2.1166667,8.9958333 2.38125,5.0270837 Z"
       id="path4529"
       inkscape:connector-curvature="0"
       sodipodi:nodetypes="cccccccccc" />
    <path
       sodipodi:nodetypes="cccccc"
       inkscape:connector-curvature="0"
       id="path4533"
       d="m -12.7,1.5875003 h 1.322917 l 1.322916,1.3229166 v 9.2604161 h -3.704166 z"
       style="fill:#cecac2;fill-opacity:1;stroke:none;stroke-width:0.26458332px;stroke-linecap:butt;stroke-linejoin:miter;stroke-opacity:1" />
    <path
       style="fill:#cecac2;fill-opacity:1;stroke:none;stroke-width:0.26458332px;stroke-linecap:butt;stroke-linejoin:miter;stroke-opacity:1"
       d="m 3.96875,2.6458333 0.2645833,1.5875 0.5291667,0.79375 H 21.695833 L 22.225,4.2333333 22.489583,2.6458333 19.314583,2.38125 7.9374999,2.1166666 Z"
       id="path4535"
       inkscape:connector-curvature="0"
       sodipodi:nodetypes="ccccccccc" />
    <path
       sodipodi:nodetypes="cccccccccc"
       inkscape:connector-curvature="0"
       id="path4537"
       d="M 24.077084,5.0270837 23.812501,3.96875 22.225,4.2333333 l -0.529167,0.79375 0.264584,17.7270837 1.622936,0.959114 c 0.861971,-0.465585 0.962053,-0.275879 1.552064,0.09921 l 0.264584,-3.96875 -0.264584,-4.233333 C 24.606251,10.583333 24.341667,8.9958333 24.077084,5.0270837 Z"
       style="fill:#ecebe6;fill-opacity:1;stroke:none;stroke-width:0.26458332px;stroke-linecap:butt;stroke-linejoin:miter;stroke-opacity:1" />
    <path
       style="fill:#ecebe6;fill-opacity:1;stroke:none;stroke-width:0.26458332px;stroke-linecap:butt;stroke-linejoin:miter;stroke-opacity:1"
       d="m 4.5333519,22.482496 -1.681994,1.159915 c 0.3737998,0.744553 0.1951981,1.146328 -0.2055246,1.493005 l 7.1437499,0.529167 H 15.610416 L 21.43125,25.4 23.8125,25.135416 c -0.336396,-0.3179 -0.505805,-0.889929 -0.229147,-1.422135 l -1.622937,-0.959115 z"
       id="path4541"
       inkscape:connector-curvature="0"
       sodipodi:nodetypes="cccccccccc" />
  </g>
  <g
     inkscape:groupmode="layer"
     id="layer4"
     inkscape:label="Layer 4"
     style="display:inline">
    <path
       sodipodi:nodetypes="ccccccccc"
       inkscape:connector-curvature="0"
       id="path4525"
       d="M 2.6458333,3.96875 C 2.0998949,2.3958825 2.8874863,2.3524504 3.96875,2.6458333 c 6.195113,-0.7098106 12.368466,-0.7012899 18.520834,0 1.44336,-0.5000668 1.694963,0.1186843 1.322916,1.3229167 0.778524,6.686759 1.90032,13.446916 1.322916,19.84375 0.088,1.07407 -0.231523,1.338184 -1.322916,1.322916 -7.101508,0.713442 -14.1921298,0.589383 -21.1666667,0 C 1.7305044,25.249541 1.2630327,24.782214 1.3229166,23.8125 0.7448167,17.465611 1.8619372,10.673414 2.6458333,3.96875 Z"
       style="display:inline;fill:none;fill-opacity:1;stroke:#eae7d9;stroke-width:0.26458332px;stroke-linecap:butt;stroke-linejoin:miter;stroke-opacity:1" />
  </g>
  <g
     inkscape:groupmode="layer"
     id="layer3"
     inkscape:label="Layer 3"
     sodipodi:insensitive="true"
     style="display:inline">
    <circle
       id="path843"
       cx="3.4395833"
       cy="3.4395833"
       r="0.52916664"
       style="stroke-width:0.26458332" />
    <circle
       id="path845"
       cx="23.018749"
       cy="3.4395833"
       r="0.52916664"
       style="stroke-width:0.26458332" />
    <circle
       id="path847"
       cx="2.1166666"
       cy="24.341667"
       r="0.52916664"
       style="stroke-width:0.26458332" />
    <circle
       id="path849"
       cx="24.341667"
       cy="24.341667"
       r="0.52916664"
       style="stroke-width:0.26458332" />
  </g>
  <g
     inkscape:label="Layer 1"
     inkscape:groupmode="layer"
     id="layer1"
     transform="translate(0,-270.54165)"
     style="display:inline">
    <path
       style="stroke-width:0.26458332"
       d="m 4.73887,275.17187 c 5.62694,-0.35087 11.271197,-0.35471 16.933346,0 0.438874,0.0275 0.76643,0.35486 0.793744,0.79374 0.349345,5.61326 0.356195,11.2571 0,16.93335 -0.02754,0.43887 -0.354863,0.76637 -0.793744,0.79374 -5.628777,0.35105 -11.273072,0.35449 -16.933346,0 -0.4388741,-0.0275 -0.7637445,-0.35503 -0.7937435,-0.79374 -0.3780085,-5.528 -0.3267692,-11.18823 0,-16.93335 0.02497,-0.43902 0.354862,-0.76637 0.7937435,-0.79374 z"
       id="rect817"
       inkscape:connector-curvature="0"
       sodipodi:nodetypes="sssssssss" />
  </g>
</svg>
