<?xml version="1.0" encoding="UTF-8" standalone="no"?>
<!-- Created with Inkscape (http://www.inkscape.org/) -->

<svg
   xmlns:dc="http://purl.org/dc/elements/1.1/"
   xmlns:cc="http://creativecommons.org/ns#"
   xmlns:rdf="http://www.w3.org/1999/02/22-rdf-syntax-ns#"
   xmlns:svg="http://www.w3.org/2000/svg"
   xmlns="http://www.w3.org/2000/svg"
   xmlns:sodipodi="http://sodipodi.sourceforge.net/DTD/sodipodi-0.dtd"
   xmlns:inkscape="http://www.inkscape.org/namespaces/inkscape"
   width="100"
   height="100"
   viewBox="0 0 26.458333 26.458334"
   version="1.1"
   id="svg8"
   sodipodi:docname="land_screen_raw.svg"
   inkscape:version="0.92.3 (2405546, 2018-03-11)">
  <defs
     id="defs2" />
  <sodipodi:namedview
     id="base"
     pagecolor="#ffffff"
     bordercolor="#666666"
     borderopacity="1.0"
     inkscape:pageopacity="0.0"
     inkscape:pageshadow="2"
     inkscape:zoom="7.9195959"
     inkscape:cx="34.698035"
     inkscape:cy="55.841012"
     inkscape:document-units="mm"
     inkscape:current-layer="layer4"
     showgrid="true"
     units="px"
     inkscape:pagecheckerboard="true"
     inkscape:window-width="2400"
     inkscape:window-height="1497"
     inkscape:window-x="0"
     inkscape:window-y="0"
     inkscape:window-maximized="1">
    <inkscape:grid
       type="xygrid"
       id="grid10" />
  </sodipodi:namedview>
  <metadata
     id="metadata5">
    <rdf:RDF>
      <cc:Work
         rdf:about="">
        <dc:format>image/svg+xml</dc:format>
        <dc:type
           rdf:resource="http://purl.org/dc/dcmitype/StillImage" />
        <dc:title></dc:title>
      </cc:Work>
    </rdf:RDF>
  </metadata>
  <g
     inkscape:groupmode="layer"
     id="layer4"
     inkscape:label="Layer 4"
     style="display:inline" />
  <g
     inkscape:groupmode="layer"
     id="layer2"
     inkscape:label="Layer 2"
     style="display:inline">
    <path
       style="fill:none;stroke:#000000;stroke-width:0.26458332px;stroke-linecap:butt;stroke-linejoin:miter;stroke-opacity:1"
       d="M 2.6458333,3.96875 C 2.0998949,2.3958825 2.8874863,2.3524504 3.96875,2.6458333 c 6.195113,-0.7098106 12.368466,-0.7012899 18.520834,0 1.44336,-0.5000668 1.694963,0.1186843 1.322916,1.3229167 0.778524,6.686759 1.90032,13.446916 1.322916,19.84375 0.324842,1.128907 0.199088,1.85304 -1.322916,1.322916 -7.101508,0.713442 -14.1560458,0.697635 -21.1666667,0 C 1.2735972,25.602483 0.90967909,25.086379 1.3229166,23.8125 0.7448167,17.465611 1.8619372,10.673414 2.6458333,3.96875 Z"
       id="path820"
       inkscape:connector-curvature="0"
       sodipodi:nodetypes="ccccccccc" />
  </g>
  <g
     inkscape:groupmode="layer"
     id="layer3"
     inkscape:label="Layer 3"
     sodipodi:insensitive="true"
     style="display:inline">
    <circle
       id="path843"
       cx="3.4395833"
       cy="3.4395833"
       r="0.52916664"
       style="stroke-width:0.26458332" />
    <circle
       id="path845"
       cx="23.018749"
       cy="3.4395833"
       r="0.52916664"
       style="stroke-width:0.26458332" />
    <circle
       id="path847"
       cx="2.1166666"
       cy="24.341667"
       r="0.52916664"
       style="stroke-width:0.26458332" />
    <circle
       id="path849"
       cx="24.341667"
       cy="24.341667"
       r="0.52916664"
       style="stroke-width:0.26458332" />
  </g>
  <g
     inkscape:label="Layer 1"
     inkscape:groupmode="layer"
     id="layer1"
     transform="translate(0,-270.54165)"
     style="display:inline">
    <path
       style="stroke-width:0.26458332"
       d="m 4.7624935,274.51041 c 5.6269405,-0.35087 11.2711975,-0.35471 16.9333465,0 0.438874,0.0275 0.76643,0.35486 0.793744,0.79374 0.349345,5.61326 0.356195,11.2571 0,16.93335 -0.02754,0.43887 -0.354863,0.76637 -0.793744,0.79374 -5.628777,0.35105 -11.273072,0.35449 -16.9333465,0 -0.4388741,-0.0275 -0.7637445,-0.35503 -0.7937435,-0.79374 -0.3780085,-5.528 -0.3267692,-11.18823 0,-16.93335 0.02497,-0.43902 0.354862,-0.76637 0.7937435,-0.79374 z"
       id="rect817"
       inkscape:connector-curvature="0"
       sodipodi:nodetypes="sssssssss" />
  </g>
</svg>
