<?xml version="1.0" encoding="UTF-8" standalone="no"?>
<!-- Created with Inkscape (http://www.inkscape.org/) -->

<svg
   xmlns:dc="http://purl.org/dc/elements/1.1/"
   xmlns:cc="http://creativecommons.org/ns#"
   xmlns:rdf="http://www.w3.org/1999/02/22-rdf-syntax-ns#"
   xmlns:svg="http://www.w3.org/2000/svg"
   xmlns="http://www.w3.org/2000/svg"
   xmlns:xlink="http://www.w3.org/1999/xlink"
   xmlns:sodipodi="http://sodipodi.sourceforge.net/DTD/sodipodi-0.dtd"
   xmlns:inkscape="http://www.inkscape.org/namespaces/inkscape"
   width="100"
   height="100"
   viewBox="0 0 26.458333 26.458334"
   version="1.1"
   id="svg8"
   sodipodi:docname="land_screen_raw.svg"
   inkscape:version="0.92.3 (2405546, 2018-03-11)">
  <defs
     id="defs2">
    <linearGradient
       inkscape:collect="always"
       id="linearGradient901">
      <stop
         style="stop-color:#302b2d;stop-opacity:1"
         offset="0"
         id="stop897" />
      <stop
         style="stop-color:#766e67;stop-opacity:1"
         offset="1"
         id="stop899" />
    </linearGradient>
    <linearGradient
       inkscape:collect="always"
       xlink:href="#linearGradient901"
       id="linearGradient907"
       x1="2.6458333"
       y1="25.135416"
       x2="1.842634"
       y2="23.8125"
       gradientUnits="userSpaceOnUse" />
    <linearGradient
       inkscape:collect="always"
       xlink:href="#linearGradient901"
       id="linearGradient911"
       gradientUnits="userSpaceOnUse"
       x1="2.6458333"
       y1="25.135416"
       x2="1.842634"
       y2="23.8125"
       gradientTransform="translate(22.158854,-0.02362351)" />
    <linearGradient
       inkscape:collect="always"
       xlink:href="#linearGradient901"
       id="linearGradient915"
       gradientUnits="userSpaceOnUse"
       gradientTransform="translate(21.095796,-21.166667)"
       x1="2.6458333"
       y1="25.135416"
       x2="1.842634"
       y2="23.8125" />
    <linearGradient
       inkscape:collect="always"
       xlink:href="#linearGradient901"
       id="linearGradient919"
       gradientUnits="userSpaceOnUse"
       gradientTransform="translate(1.0158109,-21.143043)"
       x1="2.6458333"
       y1="25.135416"
       x2="1.842634"
       y2="23.8125" />
  </defs>
  <sodipodi:namedview
     id="base"
     pagecolor="#ffffff"
     bordercolor="#666666"
     borderopacity="1.0"
     inkscape:pageopacity="0.0"
     inkscape:pageshadow="2"
     inkscape:zoom="3.959798"
     inkscape:cx="20.557272"
     inkscape:cy="43.613077"
     inkscape:document-units="mm"
     inkscape:current-layer="layer1"
     showgrid="true"
     units="px"
     inkscape:pagecheckerboard="true"
     inkscape:window-width="2560"
     inkscape:window-height="1017"
     inkscape:window-x="-8"
     inkscape:window-y="767"
     inkscape:window-maximized="1"
     inkscape:snap-grids="false">
    <inkscape:grid
       type="xygrid"
       id="grid10" />
  </sodipodi:namedview>
  <metadata
     id="metadata5">
    <rdf:RDF>
      <cc:Work
         rdf:about="">
        <dc:format>image/svg+xml</dc:format>
        <dc:type
           rdf:resource="http://purl.org/dc/dcmitype/StillImage" />
        <dc:title />
      </cc:Work>
    </rdf:RDF>
  </metadata>
  <g
     inkscape:groupmode="layer"
     id="layer2"
     inkscape:label="Layer 2"
     style="display:inline">
    <path
       style="fill:#eae7d9;fill-opacity:1;stroke:#eae7d9;stroke-width:0.26458332px;stroke-linecap:butt;stroke-linejoin:miter;stroke-opacity:1"
       d="M 2.6458333,3.96875 C 2.0998949,2.3958825 2.8874863,2.3524504 3.96875,2.6458333 c 6.195113,-0.7098106 12.368466,-0.7012899 18.520834,0 1.44336,-0.5000668 1.694963,0.1186843 1.322916,1.3229167 0.778524,6.686759 1.90032,13.446916 1.322916,19.84375 -0.02046,0.686407 -0.357858,1.144012 -1.322916,1.322916 -7.101508,0.713442 -14.1560458,0.697635 -21.1666667,0 C 1.4300276,25.3532 1.1540363,24.817573 1.3229166,23.8125 0.7448167,17.465611 1.8619372,10.673414 2.6458333,3.96875 Z"
       id="path820"
       inkscape:connector-curvature="0"
       sodipodi:nodetypes="ccccccccc" />
    <path
       style="fill:#eae7d9;fill-opacity:1;stroke:#000000;stroke-width:0.26458332px;stroke-linecap:butt;stroke-linejoin:miter;stroke-opacity:1"
       d="M -7.4083332,7.9374999 -7.6729166,12.7 -3.96875,10.583333 -5.5562499,7.4083332 Z"
       id="path4531"
       inkscape:connector-curvature="0" />
  </g>
  <g
     inkscape:groupmode="layer"
     id="layer5"
     inkscape:label="Layer 5"
     style="display:inline">
    <path
       style="fill:#cecac2;fill-opacity:1;stroke:none;stroke-width:0.26458332px;stroke-linecap:butt;stroke-linejoin:miter;stroke-opacity:1"
       d="M 2.38125,5.0270837 2.6458333,3.96875 4.2333333,4.2333333 4.7625,5.0270833 4.5333519,22.482496 2.8513579,23.642411 C 1.8459601,23.148633 1.342813,23.515437 1.3229167,23.8125 L 1.0583333,19.84375 1.3229167,15.610417 C 1.8520833,10.583333 2.1166667,8.9958333 2.38125,5.0270837 Z"
       id="path4529"
       inkscape:connector-curvature="0"
       sodipodi:nodetypes="cccccccccc" />
    <path
       sodipodi:nodetypes="cccccc"
       inkscape:connector-curvature="0"
       id="path4533"
       d="m -12.7,1.5875003 h 1.322917 l 1.322916,1.3229166 v 9.2604161 h -3.704166 z"
       style="fill:#cecac2;fill-opacity:1;stroke:none;stroke-width:0.26458332px;stroke-linecap:butt;stroke-linejoin:miter;stroke-opacity:1" />
    <path
       style="fill:#cecac2;fill-opacity:1;stroke:none;stroke-width:0.26458332px;stroke-linecap:butt;stroke-linejoin:miter;stroke-opacity:1"
       d="m 3.96875,2.6458333 0.2645833,1.5875 0.5291667,0.79375 H 21.695833 L 22.225,4.2333333 22.489583,2.6458333 19.314583,2.38125 7.9374999,2.1166666 Z"
       id="path4535"
       inkscape:connector-curvature="0"
       sodipodi:nodetypes="ccccccccc" />
    <path
       sodipodi:nodetypes="cccccccccc"
       inkscape:connector-curvature="0"
       id="path4537"
       d="M 24.077084,5.0270837 23.812501,3.96875 22.225,4.2333333 l -0.529167,0.79375 0.264584,17.7270837 1.622936,0.959114 c 0.861971,-0.465585 0.962053,-0.275879 1.552064,0.09921 l 0.264584,-3.96875 -0.264584,-4.233333 C 24.606251,10.583333 24.341667,8.9958333 24.077084,5.0270837 Z"
       style="fill:#ecebe6;fill-opacity:1;stroke:none;stroke-width:0.26458332px;stroke-linecap:butt;stroke-linejoin:miter;stroke-opacity:1" />
    <path
       style="fill:#ecebe6;fill-opacity:1;stroke:none;stroke-width:0.26458332px;stroke-linecap:butt;stroke-linejoin:miter;stroke-opacity:1"
       d="m 4.5333519,22.482496 -1.681994,1.159915 c 0.3737998,0.744553 0.1951981,1.146328 -0.2055246,1.493005 l 7.1437499,0.529167 H 15.610416 L 21.43125,25.4 23.8125,25.135416 c -0.336396,-0.3179 -0.505805,-0.889929 -0.229147,-1.422135 l -1.622937,-0.959115 z"
       id="path4541"
       inkscape:connector-curvature="0"
       sodipodi:nodetypes="cccccccccc" />
  </g>
  <g
     inkscape:groupmode="layer"
     id="layer4"
     inkscape:label="Layer 4"
     style="display:inline">
    <path
       sodipodi:nodetypes="ccccccccc"
       inkscape:connector-curvature="0"
       id="path4525"
       d="M 2.6458333,3.96875 C 2.0998949,2.3958825 2.8874863,2.3524504 3.96875,2.6458333 c 6.195113,-0.7098106 12.368466,-0.7012899 18.520834,0 1.44336,-0.5000668 1.694963,0.1186843 1.322916,1.3229167 0.778524,6.686759 1.90032,13.446916 1.322916,19.84375 0.088,1.07407 -0.231523,1.338184 -1.322916,1.322916 -7.101508,0.713442 -14.1921298,0.589383 -21.1666667,0 C 1.7305044,25.249541 1.2630327,24.782214 1.3229166,23.8125 0.7448167,17.465611 1.8619372,10.673414 2.6458333,3.96875 Z"
       style="display:inline;fill:none;fill-opacity:1;stroke:#eae7d9;stroke-width:0.26458332px;stroke-linecap:butt;stroke-linejoin:miter;stroke-opacity:1" />
  </g>
  <g
     inkscape:groupmode="layer"
     id="layer3"
     inkscape:label="Layer 3"
     style="display:inline">
    <ellipse
       id="path873"
       cx="2.126116"
       cy="24.332218"
       rx="0.46772167"
       ry="0.50113034"
       style="stroke-width:0.17594792;fill-opacity:1;fill:#403e43;stroke:url(#linearGradient907);stroke-miterlimit:4;stroke-dasharray:none;paint-order:markers stroke fill" />
    <ellipse
       style="fill:#403e43;fill-opacity:1;stroke:url(#linearGradient911);stroke-width:0.17594792;stroke-miterlimit:4;stroke-dasharray:none;paint-order:markers stroke fill"
       ry="0.50113034"
       rx="0.46772167"
       cy="24.308594"
       cx="24.284969"
       id="ellipse909" />
    <ellipse
       id="ellipse913"
       cx="23.22191"
       cy="3.1655507"
       rx="0.46772167"
       ry="0.50113034"
       style="fill:#403e43;fill-opacity:1;stroke:url(#linearGradient915);stroke-width:0.17594792;stroke-miterlimit:4;stroke-dasharray:none;paint-order:markers stroke fill" />
    <ellipse
       style="fill:#403e43;fill-opacity:1;stroke:url(#linearGradient919);stroke-width:0.17594792;stroke-miterlimit:4;stroke-dasharray:none;paint-order:markers stroke fill"
       ry="0.50113034"
       rx="0.46772167"
       cy="3.1891742"
       cx="3.1419253"
       id="ellipse917" />
  </g>
  <g
     inkscape:label="Layer 1"
     inkscape:groupmode="layer"
     id="layer1"
     transform="translate(0,-270.54165)"
     style="display:inline">
    <path
       style="stroke-width:0.26458332"
       d="m 4.73887,275.17187 c 9.132856,0.0331 9.144668,0.0213 16.933346,0 0.439733,-0.001 0.791829,0.35402 0.793744,0.79374 0.02362,5.42396 0.02362,14.41979 0,16.93335 -0.0041,0.43971 -0.354011,0.79296 -0.793744,0.79374 -4.843673,0.009 -14.1412862,-0.01 -16.933346,0 -0.4397319,0.002 -0.7957569,-0.35401 -0.7937435,-0.79374 0.023623,-5.15939 0.023623,-11.77398 0,-16.93335 -0.00201,-0.43972 0.3540123,-0.79533 0.7937435,-0.79374 z"
       id="rect817"
       inkscape:connector-curvature="0"
       sodipodi:nodetypes="sssssssss" />
  </g>
</svg>
